<svg width="83" height="83" viewBox="0 0 83 83" fill="none" xmlns="http://www.w3.org/2000/svg">
<path d="M21.021 0.927002L20.34 4.498C20.163 5.381 20.131 6.278 20.011 7.167L32.677 15.084C33.6819 13.4375 34.9384 11.9586 36.401 10.701L21.021 0.927002Z" fill="#21205C"/>
<path d="M78.5951 35.826C75.6131 33.813 71.6271 34.365 69.3691 34.96L65.4871 32.371L68.3111 30.488L69.5031 30.723C70.5123 30.9073 71.5362 30.9983 72.5621 30.995C74.8831 30.995 78.1681 30.523 80.3251 28.364C80.9901 27.7 84.0191 25.156 82.3721 16.121C80.7021 15.821 73.8871 14.244 69.9721 18.168C68.2188 20.14 67.2851 22.7074 67.3621 25.345L63.5621 27.88V25.207C63.5609 22.0001 62.4943 18.8844 60.5298 16.3495C58.5653 13.8147 55.8143 12.0044 52.7091 11.2031C49.6038 10.4018 46.3204 10.6549 43.3746 11.9227C40.4289 13.1905 37.9879 15.401 36.4351 18.207L34.3141 21.776L6.5991 4.45502L5.9181 7.86602C4.47969 15.0472 4.92388 22.4785 7.20748 29.4372C9.49108 36.3959 13.5364 42.6454 18.9501 47.578L0.923096 76.831L19.3821 83L24.4061 68.425H32.3061C38.0418 68.4195 43.5411 66.1387 47.5972 62.0832C51.6532 58.0277 53.9347 52.5287 53.9411 46.793V34.775H60.4261L66.0521 38.526C66.1631 40.451 66.7931 45.37 70.3721 47.783C75.4971 51.235 82.4181 47.59 82.9451 47.457C82.9251 45.796 83.2021 38.933 78.5951 35.826ZM53.9441 25.16H49.1361V20.355H53.9431L53.9441 25.16Z" fill="#21205C"/>
</svg>
