<svg width="96" height="100" viewBox="0 0 96 100" fill="none" xmlns="http://www.w3.org/2000/svg">
<path d="M69.3743 8.07695C67.6504 8.07695 65.9971 8.76177 64.7781 9.98076C63.5591 11.1997 62.8743 12.853 62.8743 14.577V10.73C62.8743 9.00605 62.1894 7.35275 60.9705 6.13376C59.7515 4.91477 58.0982 4.22995 56.3743 4.22995C54.6504 4.22995 52.9971 4.91477 51.7781 6.13376C50.5591 7.35275 49.8743 9.00605 49.8743 10.73V6.87695C49.8743 5.15305 49.1894 3.49975 47.9705 2.28076C46.7515 1.06177 45.0982 0.376953 43.3743 0.376953C41.6504 0.376953 39.9971 1.06177 38.7781 2.28076C37.5591 3.49975 36.8743 5.15305 36.8743 6.87695V10.729C36.8743 9.00505 36.1894 7.35175 34.9705 6.13276C33.7515 4.91377 32.0982 4.22895 30.3743 4.22895C28.6504 4.22895 26.9971 4.91377 25.7781 6.13276C24.5591 7.35175 23.8743 9.00505 23.8743 10.729V21.098C25.9916 20.1357 28.2906 19.6385 30.6163 19.64H49.8673C52.4207 19.6429 54.8687 20.6585 56.6742 22.464C58.4797 24.2696 59.4953 26.7175 59.4983 29.271C59.4993 31.1206 59.1656 32.9552 58.5133 34.686C59.7862 34.2412 60.8893 33.4116 61.6698 32.312C62.4502 31.2124 62.8694 29.8974 62.8693 28.549C62.8693 30.2729 63.5541 31.9262 64.7731 33.1451C65.9921 34.3641 67.6454 35.049 69.3693 35.049C71.0932 35.049 72.7465 34.3641 73.9655 33.1451C75.1844 31.9262 75.8693 30.2729 75.8693 28.549V14.583C75.8701 13.7293 75.7027 12.8838 75.3767 12.0948C75.0507 11.3058 74.5725 10.5888 73.9693 9.98465C73.3662 9.3805 72.65 8.90107 71.8616 8.57374C71.0731 8.24642 70.2279 8.07761 69.3743 8.07695Z" fill="#21205C"/>
<path d="M94.2913 64.7889L88.5123 59.0099C88.244 58.7416 87.9255 58.5288 87.575 58.3836C87.2244 58.2384 86.8487 58.1636 86.4693 58.1636C86.0898 58.1636 85.7141 58.2384 85.3636 58.3836C85.013 58.5288 84.6945 58.7416 84.4263 59.0099L78.6473 64.7889C78.379 65.0572 78.1662 65.3757 78.021 65.7263C77.8758 66.0768 77.801 66.4525 77.801 66.8319C77.801 67.2114 77.8758 67.5871 78.021 67.9376C78.1662 68.2881 78.379 68.6066 78.6473 68.8749C78.9156 69.1432 79.2341 69.3561 79.5846 69.5013C79.9352 69.6464 80.3109 69.7212 80.6903 69.7212C81.0697 69.7212 81.4454 69.6464 81.7959 69.5013C82.1465 69.3561 82.465 69.1432 82.7333 68.8749L83.5793 68.0289V96.1109C83.5793 96.8773 83.8837 97.6122 84.4256 98.1541C84.9675 98.696 85.7024 99.0004 86.4688 99.0004C87.2351 99.0004 87.9701 98.696 88.512 98.1541C89.0538 97.6122 89.3583 96.8773 89.3583 96.1109V68.0289L90.2043 68.8749C90.4726 69.1432 90.7911 69.3561 91.1416 69.5013C91.4921 69.6464 91.8679 69.7212 92.2473 69.7212C92.6267 69.7212 93.0024 69.6464 93.3529 69.5013C93.7035 69.3561 94.022 69.1432 94.2903 68.8749C94.5586 68.6066 94.7714 68.2881 94.9166 67.9376C95.0618 67.5871 95.1365 67.2114 95.1365 66.8319C95.1365 66.4525 95.0618 66.0768 94.9166 65.7263C94.7714 65.3757 94.5586 65.0572 94.2903 64.7889H94.2913Z" fill="#21205C"/>
<path d="M11.4642 59.0109C11.1959 58.7426 10.8774 58.5298 10.5268 58.3846C10.1763 58.2393 9.8006 58.1646 9.42117 58.1646C9.04174 58.1646 8.66603 58.2393 8.31549 58.3846C7.96494 58.5298 7.64644 58.7426 7.37817 59.0109L1.59917 64.7899C1.05733 65.3318 0.75293 66.0667 0.75293 66.8329C0.75293 67.5992 1.05733 68.3341 1.59917 68.8759C2.14101 69.4178 2.87589 69.7222 3.64217 69.7222C4.40844 69.7222 5.14333 69.4178 5.68517 68.8759L6.53117 68.0299V96.1119C6.53117 96.8783 6.8356 97.6132 7.37748 98.1551C7.91937 98.697 8.65432 99.0014 9.42067 99.0014C10.187 99.0014 10.922 98.697 11.4639 98.1551C12.0057 97.6132 12.3102 96.8783 12.3102 96.1119V68.0289L13.1562 68.8749C13.698 69.4168 14.4329 69.7212 15.1992 69.7212C15.9654 69.7212 16.7003 69.4168 17.2422 68.8749C17.784 68.3331 18.0884 67.5982 18.0884 66.8319C18.0884 66.0657 17.784 65.3308 17.2422 64.7889L11.4642 59.0109Z" fill="#21205C"/>
<path d="M62.8741 38.959C60.365 40.5319 57.3707 41.1419 54.4461 40.676C51.6159 43.2556 47.9236 44.6841 44.0941 44.681H39.2781V48.026C41.3088 49.0836 43.0109 50.6774 44.1995 52.6343C45.3881 54.5912 46.0178 56.8364 46.0202 59.126C46.0202 59.8923 45.7157 60.6273 45.1738 61.1692C44.632 61.711 43.897 62.0155 43.1306 62.0155C42.3643 62.0155 41.6293 61.711 41.0875 61.1692C40.5456 60.6273 40.2411 59.8923 40.2411 59.126C40.2394 57.6984 39.7853 56.308 38.9441 55.1546C38.1029 54.0012 36.9179 53.1439 35.5591 52.706C34.9663 52.5231 34.4471 52.1563 34.0768 51.6586C33.7064 51.161 33.5041 50.5583 33.4992 49.938V41.789C33.4992 41.0228 33.8035 40.2879 34.3453 39.7461C34.8871 39.2043 35.6219 38.9 36.3881 38.9H44.0881C46.6424 38.9 49.0921 37.8853 50.8983 36.0791C52.7045 34.273 53.7191 31.8233 53.7191 29.269C53.7189 28.2484 53.3136 27.2696 52.5923 26.5476C51.8711 25.8256 50.8927 25.4193 49.8721 25.418H30.6092C27.7994 25.418 25.1048 26.5341 23.1181 28.5209C21.1313 30.5076 20.0151 33.2023 20.0151 36.012V52.182C20.0102 57.2819 21.52 62.2684 24.3531 66.509C26.5521 69.8007 27.724 73.6713 27.7202 77.63V96.111C27.7202 96.4903 27.7949 96.866 27.9401 97.2165C28.0852 97.567 28.2981 97.8855 28.5663 98.1538C28.8346 98.4221 29.1531 98.6349 29.5036 98.7801C29.8541 98.9252 30.2298 99 30.6092 99H65.2812C65.6605 99 66.0362 98.9252 66.3867 98.7801C66.7372 98.6349 67.0557 98.4221 67.324 98.1538C67.5923 97.8855 67.805 97.567 67.9502 97.2165C68.0954 96.866 68.1701 96.4903 68.1701 96.111V77.63C68.1664 73.6713 69.3383 69.8007 71.5372 66.509C74.3702 62.2684 75.8801 57.2819 75.8751 52.182V38.959C73.927 40.18 71.6743 40.8277 69.3751 40.8277C67.076 40.8277 64.8233 40.18 62.8751 38.959H62.8741Z" fill="#21205C"/>
</svg>
