<svg width="32" height="32" viewBox="0 0 32 32" fill="none" xmlns="http://www.w3.org/2000/svg">
<path d="M7.0349 10.563H2.1379C1.67287 10.563 1.2959 10.94 1.2959 11.405V30.592C1.2959 31.057 1.67287 31.434 2.1379 31.434H7.0349C7.49992 31.434 7.8769 31.057 7.8769 30.592V11.405C7.8769 10.94 7.49992 10.563 7.0349 10.563Z" fill="#181726"/>
<path d="M4.58601 8.79311C6.93487 8.79311 8.83901 6.88898 8.83901 4.54011C8.83901 2.19124 6.93487 0.287109 4.58601 0.287109C2.23714 0.287109 0.333008 2.19124 0.333008 4.54011C0.333008 6.88898 2.23714 8.79311 4.58601 8.79311Z" fill="#181726"/>
<path d="M31.274 30.467C31.2739 30.594 31.2487 30.7198 31.2 30.837C31.1513 30.9543 31.0799 31.0608 30.9901 31.1505C30.9002 31.2402 30.7935 31.3113 30.6761 31.3598C30.5588 31.4083 30.433 31.4332 30.306 31.433H25.506C25.2499 31.4328 25.0043 31.3309 24.8232 31.1498C24.6421 30.9687 24.5403 30.7232 24.54 30.467V21.667C24.54 20.354 24.925 15.912 21.108 15.912C18.148 15.912 17.547 18.952 17.426 20.312V30.467C17.4259 30.594 17.4007 30.7198 17.352 30.837C17.3033 30.9543 17.2319 31.0608 17.1421 31.1505C17.0522 31.2402 16.9455 31.3113 16.8281 31.3598C16.7108 31.4083 16.585 31.4332 16.458 31.433H11.812C11.685 31.4332 11.5592 31.4083 11.4419 31.3598C11.3245 31.3113 11.2178 31.2402 11.1279 31.1505C11.038 31.0608 10.9667 30.9543 10.918 30.837C10.8693 30.7198 10.8441 30.594 10.844 30.467V11.529C10.8441 11.4021 10.8693 11.2763 10.918 11.1591C10.9667 11.0418 11.038 10.9353 11.1279 10.8456C11.2178 10.7559 11.3245 10.6847 11.4419 10.6363C11.5592 10.5878 11.685 10.5629 11.812 10.563H16.458C16.585 10.5629 16.7108 10.5878 16.8281 10.6363C16.9455 10.6847 17.0522 10.7559 17.1421 10.8456C17.2319 10.9353 17.3033 11.0418 17.352 11.1591C17.4007 11.2763 17.4259 11.4021 17.426 11.529V13.167C18.526 11.519 20.155 10.248 23.626 10.248C31.318 10.248 31.275 17.435 31.275 21.384L31.274 30.467Z" fill="#181726"/>
</svg>
