<svg width="105" height="106" viewBox="0 0 105 106" fill="none" xmlns="http://www.w3.org/2000/svg">
<path d="M0.0446449 54.385C-1.14336 25.985 21.5235 1.93608 50.6665 0.685084C78.9915 -0.531916 103.058 22.209 104.303 51.369C105.508 79.584 82.7924 103.689 53.8034 104.953C25.4104 106.19 1.25964 83.474 0.0446449 54.385ZM9.34445 52.7741C9.33743 61.239 11.8387 69.5162 16.5322 76.5607C21.2257 83.6052 27.9012 89.1012 35.7158 92.3549C43.5304 95.6085 52.1338 96.474 60.4399 94.8418C68.746 93.2097 76.3823 89.1532 82.3847 83.1845C88.3872 77.2158 92.4865 69.6025 94.1655 61.3058C95.8444 53.0091 95.0276 44.4009 91.8181 36.568C88.6086 28.7352 83.1503 22.0288 76.1323 17.2957C69.1143 12.5625 60.8512 10.0147 52.3864 9.97402C46.743 9.93281 41.1472 11.01 35.9223 13.1433C30.6974 15.2766 25.9469 18.4238 21.945 22.4032C17.9432 26.3826 14.7694 31.1152 12.6067 36.328C10.4439 41.5408 9.33505 47.1305 9.34445 52.7741Z" fill="white"/>
<path d="M61.8909 48.3161V28.911C61.8909 27.811 61.8789 26.703 61.8909 25.599C61.9369 22.489 63.814 20.4231 66.525 20.4851C69.163 20.5461 70.993 22.549 71.003 25.531C71.03 33.731 71.013 41.9311 71.013 50.1311C71.013 51.0771 71.0479 52.0251 70.9979 52.9691C70.8629 55.5051 69.2389 57.4181 66.7129 57.4441C57.2523 57.5428 47.7909 57.5457 38.3289 57.453C37.7335 57.4536 37.1444 57.3312 36.5984 57.0935C36.0525 56.8558 35.5616 56.5079 35.1563 56.0717C34.751 55.6354 34.4401 55.1203 34.2432 54.5584C34.0463 53.9964 33.9677 53.3998 34.012 52.806C34.0208 52.1922 34.1537 51.5866 34.4029 51.0255C34.6521 50.4645 35.0124 49.9597 35.462 49.5416C35.9115 49.1236 36.441 48.8009 37.0186 48.593C37.5962 48.3851 38.2099 48.2963 38.8228 48.332C45.5228 48.284 52.223 48.3161 58.93 48.3151L61.8909 48.3161Z" fill="white"/>
</svg>
