<svg width="111" height="54" viewBox="0 0 111 54" fill="none" xmlns="http://www.w3.org/2000/svg">
<path d="M85.8027 0.253002C70.2027 0.253002 59.8707 13.012 50.7607 24.271C42.9767 33.889 35.6257 42.971 26.6737 42.971C17.3677 42.971 11.6547 33.407 11.6547 26.551C11.6547 20.194 17.9227 10.951 27.7457 10.951C37.2777 10.951 42.2457 18.58 42.4937 18.971C43.2363 20.1804 44.4289 21.0452 45.8092 21.3753C47.1894 21.7054 48.6443 21.4736 49.8537 20.731C51.063 19.9884 51.9279 18.7958 52.258 17.4155C52.588 16.0352 52.3563 14.5804 51.6137 13.371C51.2867 12.836 43.4367 0.25 27.7457 0.25C11.9517 0.254 0.95166 14.114 0.95166 26.552C0.95166 39.38 11.5147 53.675 26.6727 53.675C40.7307 53.675 50.0597 42.15 59.0797 31.004C67.4237 20.696 75.3057 10.957 85.8037 10.957C92.0497 10.957 96.1537 13.076 98.3467 17.43C99.6962 20.4227 100.346 23.6836 100.247 26.965C100.032 30.0894 99.1716 33.1352 97.7197 35.91C95.3507 40.28 91.9867 42.31 87.1257 42.31C77.3367 42.31 72.0477 35.947 70.0567 33.551C69.6391 33.0111 69.1746 32.5092 68.6687 32.051C67.6133 31.1346 66.2412 30.6675 64.8459 30.7496C63.4506 30.8317 62.1428 31.4565 61.2022 32.4904C60.2617 33.5243 59.7629 34.8852 59.8127 36.282C59.8625 37.6788 60.4568 39.0007 61.4687 39.965C61.5687 40.075 61.6817 40.219 61.8197 40.387C64.4197 43.511 72.3077 53.01 87.1197 53.01C105.12 53.01 110.944 35.457 110.944 26.886C111.061 21.9552 110.019 17.0657 107.902 12.611C105.066 6.978 98.9267 0.253002 85.8027 0.253002Z" fill="#21205C"/>
</svg>
