<svg width="536" height="43" viewBox="0 0 536 43" fill="none" xmlns="http://www.w3.org/2000/svg">
<rect width="32.9846" height="42.2615" fill="#21205C"/>
<rect x="65.9692" width="32.9846" height="42.2615" fill="#AACF37"/>
<rect x="32.9846" width="32.9846" height="42.2615" fill="#FBED2D"/>
<rect x="98.9539" width="32.9846" height="42.2615" fill="#53BEE0"/>
<path d="M147.883 25.9929L151.281 11.6375H153.18L153.613 14.0281L149.992 28.7H147.953L147.883 25.9929ZM146.137 11.6375L148.949 25.9929L148.715 28.7H146.441L142.656 11.6375H146.137ZM156.602 25.9343L159.379 11.6375H162.859L159.086 28.7H156.812L156.602 25.9343ZM154.246 11.6375L157.668 26.0515L157.574 28.7H155.535L151.891 14.0164L152.359 11.6375H154.246ZM163.645 22.489V22.2429C163.645 21.3132 163.777 20.4578 164.043 19.6765C164.309 18.8875 164.695 18.2039 165.203 17.6257C165.711 17.0476 166.336 16.5984 167.078 16.2781C167.82 15.95 168.672 15.7859 169.633 15.7859C170.594 15.7859 171.449 15.95 172.199 16.2781C172.949 16.5984 173.578 17.0476 174.086 17.6257C174.602 18.2039 174.992 18.8875 175.258 19.6765C175.523 20.4578 175.656 21.3132 175.656 22.2429V22.489C175.656 23.4109 175.523 24.2664 175.258 25.0554C174.992 25.8367 174.602 26.5203 174.086 27.1062C173.578 27.6843 172.953 28.1335 172.211 28.4539C171.469 28.7742 170.617 28.9343 169.656 28.9343C168.695 28.9343 167.84 28.7742 167.09 28.4539C166.348 28.1335 165.719 27.6843 165.203 27.1062C164.695 26.5203 164.309 25.8367 164.043 25.0554C163.777 24.2664 163.645 23.4109 163.645 22.489ZM167.02 22.2429V22.489C167.02 23.0203 167.066 23.5164 167.16 23.9773C167.254 24.4382 167.402 24.8445 167.605 25.196C167.816 25.5398 168.09 25.8093 168.426 26.0046C168.762 26.2 169.172 26.2976 169.656 26.2976C170.125 26.2976 170.527 26.2 170.863 26.0046C171.199 25.8093 171.469 25.5398 171.672 25.196C171.875 24.8445 172.023 24.4382 172.117 23.9773C172.219 23.5164 172.27 23.0203 172.27 22.489V22.2429C172.27 21.7273 172.219 21.2429 172.117 20.7898C172.023 20.3289 171.871 19.9226 171.66 19.571C171.457 19.2117 171.188 18.9304 170.852 18.7273C170.516 18.5242 170.109 18.4226 169.633 18.4226C169.156 18.4226 168.75 18.5242 168.414 18.7273C168.086 18.9304 167.816 19.2117 167.605 19.571C167.402 19.9226 167.254 20.3289 167.16 20.7898C167.066 21.2429 167.02 21.7273 167.02 22.2429ZM181.105 18.7859V28.7H177.73V16.0203H180.906L181.105 18.7859ZM184.926 15.9382L184.867 19.0671C184.703 19.0437 184.504 19.0242 184.27 19.0085C184.043 18.9851 183.836 18.9734 183.648 18.9734C183.172 18.9734 182.758 19.0359 182.406 19.1609C182.062 19.2781 181.773 19.4539 181.539 19.6882C181.312 19.9226 181.141 20.2078 181.023 20.5437C180.914 20.8796 180.852 21.2625 180.836 21.6921L180.156 21.4812C180.156 20.6609 180.238 19.907 180.402 19.2195C180.566 18.5242 180.805 17.9187 181.117 17.4031C181.438 16.8875 181.828 16.489 182.289 16.2078C182.75 15.9265 183.277 15.7859 183.871 15.7859C184.059 15.7859 184.25 15.8015 184.445 15.8328C184.641 15.8562 184.801 15.8914 184.926 15.9382ZM190.082 10.7V28.7H186.695V10.7H190.082ZM200.359 25.9343V10.7H203.758V28.7H200.699L200.359 25.9343ZM192.344 22.5125V22.2664C192.344 21.2976 192.453 20.4187 192.672 19.6296C192.891 18.8328 193.211 18.1492 193.633 17.5789C194.055 17.0085 194.574 16.5671 195.191 16.2546C195.809 15.9421 196.512 15.7859 197.301 15.7859C198.043 15.7859 198.691 15.9421 199.246 16.2546C199.809 16.5671 200.285 17.0125 200.676 17.5906C201.074 18.1609 201.395 18.8367 201.637 19.6179C201.879 20.3914 202.055 21.239 202.164 22.1609V22.7C202.055 23.5828 201.879 24.4031 201.637 25.1609C201.395 25.9187 201.074 26.5828 200.676 27.1531C200.285 27.7156 199.809 28.1531 199.246 28.4656C198.684 28.7781 198.027 28.9343 197.277 28.9343C196.488 28.9343 195.785 28.7742 195.168 28.4539C194.559 28.1335 194.043 27.6843 193.621 27.1062C193.207 26.5281 192.891 25.8484 192.672 25.0671C192.453 24.2859 192.344 23.4343 192.344 22.5125ZM195.719 22.2664V22.5125C195.719 23.0359 195.758 23.5242 195.836 23.9773C195.922 24.4304 196.059 24.8328 196.246 25.1843C196.441 25.5281 196.691 25.7976 196.996 25.9929C197.309 26.1804 197.688 26.2742 198.133 26.2742C198.711 26.2742 199.188 26.1453 199.562 25.8875C199.938 25.6218 200.223 25.2585 200.418 24.7976C200.621 24.3367 200.738 23.8054 200.77 23.2039V21.6687C200.746 21.1765 200.676 20.7351 200.559 20.3445C200.449 19.946 200.285 19.6062 200.066 19.325C199.855 19.0437 199.59 18.825 199.27 18.6687C198.957 18.5125 198.586 18.4343 198.156 18.4343C197.719 18.4343 197.344 18.5359 197.031 18.739C196.719 18.9343 196.465 19.2039 196.27 19.5476C196.082 19.8914 195.941 20.2976 195.848 20.7664C195.762 21.2273 195.719 21.7273 195.719 22.2664ZM210.016 25.4187L212.652 16.0203H214.797L214.105 19.7117L211.469 28.7H209.676L210.016 25.4187ZM208.68 16.0203L210.566 25.407L210.742 28.7H208.633L205.422 16.0203H208.68ZM217.211 25.2546L219.051 16.0203H222.32L219.109 28.7H217.012L217.211 25.2546ZM215.09 16.0203L217.715 25.3484L218.078 28.7H216.273L213.637 19.7234L212.969 16.0203H215.09ZM227.582 16.0203V28.7H224.195V16.0203H227.582ZM223.984 12.7156C223.984 12.2234 224.156 11.8171 224.5 11.4968C224.844 11.1765 225.305 11.0164 225.883 11.0164C226.453 11.0164 226.91 11.1765 227.254 11.4968C227.605 11.8171 227.781 12.2234 227.781 12.7156C227.781 13.2078 227.605 13.614 227.254 13.9343C226.91 14.2546 226.453 14.4148 225.883 14.4148C225.305 14.4148 224.844 14.2546 224.5 13.9343C224.156 13.614 223.984 13.2078 223.984 12.7156ZM237.859 25.9343V10.7H241.258V28.7H238.199L237.859 25.9343ZM229.844 22.5125V22.2664C229.844 21.2976 229.953 20.4187 230.172 19.6296C230.391 18.8328 230.711 18.1492 231.133 17.5789C231.555 17.0085 232.074 16.5671 232.691 16.2546C233.309 15.9421 234.012 15.7859 234.801 15.7859C235.543 15.7859 236.191 15.9421 236.746 16.2546C237.309 16.5671 237.785 17.0125 238.176 17.5906C238.574 18.1609 238.895 18.8367 239.137 19.6179C239.379 20.3914 239.555 21.239 239.664 22.1609V22.7C239.555 23.5828 239.379 24.4031 239.137 25.1609C238.895 25.9187 238.574 26.5828 238.176 27.1531C237.785 27.7156 237.309 28.1531 236.746 28.4656C236.184 28.7781 235.527 28.9343 234.777 28.9343C233.988 28.9343 233.285 28.7742 232.668 28.4539C232.059 28.1335 231.543 27.6843 231.121 27.1062C230.707 26.5281 230.391 25.8484 230.172 25.0671C229.953 24.2859 229.844 23.4343 229.844 22.5125ZM233.219 22.2664V22.5125C233.219 23.0359 233.258 23.5242 233.336 23.9773C233.422 24.4304 233.559 24.8328 233.746 25.1843C233.941 25.5281 234.191 25.7976 234.496 25.9929C234.809 26.1804 235.188 26.2742 235.633 26.2742C236.211 26.2742 236.688 26.1453 237.062 25.8875C237.438 25.6218 237.723 25.2585 237.918 24.7976C238.121 24.3367 238.238 23.8054 238.27 23.2039V21.6687C238.246 21.1765 238.176 20.7351 238.059 20.3445C237.949 19.946 237.785 19.6062 237.566 19.325C237.355 19.0437 237.09 18.825 236.77 18.6687C236.457 18.5125 236.086 18.4343 235.656 18.4343C235.219 18.4343 234.844 18.5359 234.531 18.739C234.219 18.9343 233.965 19.2039 233.77 19.5476C233.582 19.8914 233.441 20.2976 233.348 20.7664C233.262 21.2273 233.219 21.7273 233.219 22.2664ZM249.73 28.9343C248.746 28.9343 247.863 28.7781 247.082 28.4656C246.301 28.1453 245.637 27.7039 245.09 27.1414C244.551 26.5789 244.137 25.9265 243.848 25.1843C243.559 24.4343 243.414 23.6375 243.414 22.7937V22.325C243.414 21.364 243.551 20.4851 243.824 19.6882C244.098 18.8914 244.488 18.2 244.996 17.614C245.512 17.0281 246.137 16.5789 246.871 16.2664C247.605 15.946 248.434 15.7859 249.355 15.7859C250.254 15.7859 251.051 15.9343 251.746 16.2312C252.441 16.5281 253.023 16.95 253.492 17.4968C253.969 18.0437 254.328 18.7 254.57 19.4656C254.812 20.2234 254.934 21.0671 254.934 21.9968V23.4031H244.855V21.1531H251.617V20.8953C251.617 20.4265 251.531 20.0085 251.359 19.6414C251.195 19.2664 250.945 18.9695 250.609 18.7507C250.273 18.532 249.844 18.4226 249.32 18.4226C248.875 18.4226 248.492 18.5203 248.172 18.7156C247.852 18.9109 247.59 19.1843 247.387 19.5359C247.191 19.8875 247.043 20.3015 246.941 20.7781C246.848 21.2468 246.801 21.7625 246.801 22.325V22.7937C246.801 23.3015 246.871 23.7703 247.012 24.2C247.16 24.6296 247.367 25.0007 247.633 25.3132C247.906 25.6257 248.234 25.8679 248.617 26.0398C249.008 26.2117 249.449 26.2976 249.941 26.2976C250.551 26.2976 251.117 26.1804 251.641 25.946C252.172 25.7039 252.629 25.3406 253.012 24.8562L254.652 26.6375C254.387 27.0203 254.023 27.3875 253.562 27.739C253.109 28.0906 252.562 28.3796 251.922 28.6062C251.281 28.825 250.551 28.9343 249.73 28.9343ZM264.648 11.6375H267.625L272.008 24.1648L276.391 11.6375H279.367L273.203 28.7H270.812L264.648 11.6375ZM263.043 11.6375H266.008L266.547 23.8484V28.7H263.043V11.6375ZM278.008 11.6375H280.984V28.7H277.469V23.8484L278.008 11.6375ZM290.699 25.8406V20.1921C290.699 19.7859 290.633 19.4382 290.5 19.1492C290.367 18.8523 290.16 18.6218 289.879 18.4578C289.605 18.2937 289.25 18.2117 288.812 18.2117C288.438 18.2117 288.113 18.2781 287.84 18.4109C287.566 18.5359 287.355 18.7195 287.207 18.9617C287.059 19.196 286.984 19.4734 286.984 19.7937H283.609C283.609 19.2546 283.734 18.7429 283.984 18.2585C284.234 17.7742 284.598 17.3484 285.074 16.9812C285.551 16.6062 286.117 16.3132 286.773 16.1023C287.438 15.8914 288.18 15.7859 289 15.7859C289.984 15.7859 290.859 15.95 291.625 16.2781C292.391 16.6062 292.992 17.0984 293.43 17.7546C293.875 18.4109 294.098 19.2312 294.098 20.2156V25.6414C294.098 26.3367 294.141 26.907 294.227 27.3523C294.312 27.7898 294.438 28.1726 294.602 28.5007V28.7H291.191C291.027 28.3562 290.902 27.9265 290.816 27.4109C290.738 26.8875 290.699 26.364 290.699 25.8406ZM291.145 20.9773L291.168 22.8875H289.281C288.836 22.8875 288.449 22.9382 288.121 23.0398C287.793 23.1414 287.523 23.2859 287.312 23.4734C287.102 23.6531 286.945 23.864 286.844 24.1062C286.75 24.3484 286.703 24.614 286.703 24.9031C286.703 25.1921 286.77 25.4539 286.902 25.6882C287.035 25.9148 287.227 26.0945 287.477 26.2273C287.727 26.3523 288.02 26.4148 288.355 26.4148C288.863 26.4148 289.305 26.3132 289.68 26.1101C290.055 25.907 290.344 25.657 290.547 25.3601C290.758 25.0632 290.867 24.782 290.875 24.5164L291.766 25.946C291.641 26.2664 291.469 26.5984 291.25 26.9421C291.039 27.2859 290.77 27.6101 290.441 27.9148C290.113 28.2117 289.719 28.4578 289.258 28.6531C288.797 28.8406 288.25 28.9343 287.617 28.9343C286.812 28.9343 286.082 28.7742 285.426 28.4539C284.777 28.1257 284.262 27.6765 283.879 27.1062C283.504 26.5281 283.316 25.8718 283.316 25.1375C283.316 24.4734 283.441 23.8835 283.691 23.3679C283.941 22.8523 284.309 22.4187 284.793 22.0671C285.285 21.7078 285.898 21.4382 286.633 21.2585C287.367 21.071 288.219 20.9773 289.188 20.9773H291.145ZM300.004 18.7273V28.7H296.629V16.0203H299.793L300.004 18.7273ZM299.512 21.9148H298.598C298.598 20.9773 298.719 20.1335 298.961 19.3835C299.203 18.6257 299.543 17.9812 299.98 17.45C300.418 16.9109 300.938 16.5007 301.539 16.2195C302.148 15.9304 302.828 15.7859 303.578 15.7859C304.172 15.7859 304.715 15.8718 305.207 16.0437C305.699 16.2156 306.121 16.489 306.473 16.864C306.832 17.239 307.105 17.7351 307.293 18.3523C307.488 18.9695 307.586 19.7234 307.586 20.614V28.7H304.188V20.6023C304.188 20.0398 304.109 19.6023 303.953 19.2898C303.797 18.9773 303.566 18.7585 303.262 18.6335C302.965 18.5007 302.598 18.4343 302.16 18.4343C301.707 18.4343 301.312 18.5242 300.977 18.7039C300.648 18.8835 300.375 19.1335 300.156 19.4539C299.945 19.7664 299.785 20.1335 299.676 20.5554C299.566 20.9773 299.512 21.4304 299.512 21.9148ZM316.996 25.8406V20.1921C316.996 19.7859 316.93 19.4382 316.797 19.1492C316.664 18.8523 316.457 18.6218 316.176 18.4578C315.902 18.2937 315.547 18.2117 315.109 18.2117C314.734 18.2117 314.41 18.2781 314.137 18.4109C313.863 18.5359 313.652 18.7195 313.504 18.9617C313.355 19.196 313.281 19.4734 313.281 19.7937H309.906C309.906 19.2546 310.031 18.7429 310.281 18.2585C310.531 17.7742 310.895 17.3484 311.371 16.9812C311.848 16.6062 312.414 16.3132 313.07 16.1023C313.734 15.8914 314.477 15.7859 315.297 15.7859C316.281 15.7859 317.156 15.95 317.922 16.2781C318.688 16.6062 319.289 17.0984 319.727 17.7546C320.172 18.4109 320.395 19.2312 320.395 20.2156V25.6414C320.395 26.3367 320.438 26.907 320.523 27.3523C320.609 27.7898 320.734 28.1726 320.898 28.5007V28.7H317.488C317.324 28.3562 317.199 27.9265 317.113 27.4109C317.035 26.8875 316.996 26.364 316.996 25.8406ZM317.441 20.9773L317.465 22.8875H315.578C315.133 22.8875 314.746 22.9382 314.418 23.0398C314.09 23.1414 313.82 23.2859 313.609 23.4734C313.398 23.6531 313.242 23.864 313.141 24.1062C313.047 24.3484 313 24.614 313 24.9031C313 25.1921 313.066 25.4539 313.199 25.6882C313.332 25.9148 313.523 26.0945 313.773 26.2273C314.023 26.3523 314.316 26.4148 314.652 26.4148C315.16 26.4148 315.602 26.3132 315.977 26.1101C316.352 25.907 316.641 25.657 316.844 25.3601C317.055 25.0632 317.164 24.782 317.172 24.5164L318.062 25.946C317.938 26.2664 317.766 26.5984 317.547 26.9421C317.336 27.2859 317.066 27.6101 316.738 27.9148C316.41 28.2117 316.016 28.4578 315.555 28.6531C315.094 28.8406 314.547 28.9343 313.914 28.9343C313.109 28.9343 312.379 28.7742 311.723 28.4539C311.074 28.1257 310.559 27.6765 310.176 27.1062C309.801 26.5281 309.613 25.8718 309.613 25.1375C309.613 24.4734 309.738 23.8835 309.988 23.3679C310.238 22.8523 310.605 22.4187 311.09 22.0671C311.582 21.7078 312.195 21.4382 312.93 21.2585C313.664 21.071 314.516 20.9773 315.484 20.9773H317.441ZM331.023 16.0203H334.082V28.2781C334.082 29.4343 333.824 30.4148 333.309 31.2195C332.801 32.032 332.09 32.6453 331.176 33.0593C330.262 33.4812 329.199 33.6921 327.988 33.6921C327.457 33.6921 326.895 33.6218 326.301 33.4812C325.715 33.3406 325.152 33.1218 324.613 32.825C324.082 32.5281 323.637 32.1531 323.277 31.7L324.766 29.7078C325.156 30.1609 325.609 30.5125 326.125 30.7625C326.641 31.0203 327.211 31.1492 327.836 31.1492C328.445 31.1492 328.961 31.0359 329.383 30.8093C329.805 30.5906 330.129 30.2664 330.355 29.8367C330.582 29.4148 330.695 28.9031 330.695 28.3015V18.95L331.023 16.0203ZM322.492 22.5125V22.2664C322.492 21.2976 322.609 20.4187 322.844 19.6296C323.086 18.8328 323.426 18.1492 323.863 17.5789C324.309 17.0085 324.848 16.5671 325.48 16.2546C326.113 15.9421 326.828 15.7859 327.625 15.7859C328.469 15.7859 329.176 15.9421 329.746 16.2546C330.316 16.5671 330.785 17.0125 331.152 17.5906C331.52 18.1609 331.805 18.8367 332.008 19.6179C332.219 20.3914 332.383 21.239 332.5 22.1609V22.7C332.383 23.5828 332.207 24.4031 331.973 25.1609C331.738 25.9187 331.43 26.5828 331.047 27.1531C330.664 27.7156 330.188 28.1531 329.617 28.4656C329.055 28.7781 328.383 28.9343 327.602 28.9343C326.82 28.9343 326.113 28.7742 325.48 28.4539C324.855 28.1335 324.32 27.6843 323.875 27.1062C323.43 26.5281 323.086 25.8484 322.844 25.0671C322.609 24.2859 322.492 23.4343 322.492 22.5125ZM325.867 22.2664V22.5125C325.867 23.0359 325.918 23.5242 326.02 23.9773C326.121 24.4304 326.277 24.8328 326.488 25.1843C326.707 25.5281 326.977 25.7976 327.297 25.9929C327.625 26.1804 328.012 26.2742 328.457 26.2742C329.074 26.2742 329.578 26.1453 329.969 25.8875C330.359 25.6218 330.652 25.2585 330.848 24.7976C331.043 24.3367 331.156 23.8054 331.188 23.2039V21.6687C331.172 21.1765 331.105 20.7351 330.988 20.3445C330.871 19.946 330.707 19.6062 330.496 19.325C330.285 19.0437 330.012 18.825 329.676 18.6687C329.34 18.5125 328.941 18.4343 328.48 18.4343C328.035 18.4343 327.648 18.5359 327.32 18.739C327 18.9343 326.73 19.2039 326.512 19.5476C326.301 19.8914 326.141 20.2976 326.031 20.7664C325.922 21.2273 325.867 21.7273 325.867 22.2664ZM342.543 28.9343C341.559 28.9343 340.676 28.7781 339.895 28.4656C339.113 28.1453 338.449 27.7039 337.902 27.1414C337.363 26.5789 336.949 25.9265 336.66 25.1843C336.371 24.4343 336.227 23.6375 336.227 22.7937V22.325C336.227 21.364 336.363 20.4851 336.637 19.6882C336.91 18.8914 337.301 18.2 337.809 17.614C338.324 17.0281 338.949 16.5789 339.684 16.2664C340.418 15.946 341.246 15.7859 342.168 15.7859C343.066 15.7859 343.863 15.9343 344.559 16.2312C345.254 16.5281 345.836 16.95 346.305 17.4968C346.781 18.0437 347.141 18.7 347.383 19.4656C347.625 20.2234 347.746 21.0671 347.746 21.9968V23.4031H337.668V21.1531H344.43V20.8953C344.43 20.4265 344.344 20.0085 344.172 19.6414C344.008 19.2664 343.758 18.9695 343.422 18.7507C343.086 18.532 342.656 18.4226 342.133 18.4226C341.688 18.4226 341.305 18.5203 340.984 18.7156C340.664 18.9109 340.402 19.1843 340.199 19.5359C340.004 19.8875 339.855 20.3015 339.754 20.7781C339.66 21.2468 339.613 21.7625 339.613 22.325V22.7937C339.613 23.3015 339.684 23.7703 339.824 24.2C339.973 24.6296 340.18 25.0007 340.445 25.3132C340.719 25.6257 341.047 25.8679 341.43 26.0398C341.82 26.2117 342.262 26.2976 342.754 26.2976C343.363 26.2976 343.93 26.1804 344.453 25.946C344.984 25.7039 345.441 25.3406 345.824 24.8562L347.465 26.6375C347.199 27.0203 346.836 27.3875 346.375 27.739C345.922 28.0906 345.375 28.3796 344.734 28.6062C344.094 28.825 343.363 28.9343 342.543 28.9343ZM359.969 25.9929L363.367 11.6375H365.266L365.699 14.0281L362.078 28.7H360.039L359.969 25.9929ZM358.223 11.6375L361.035 25.9929L360.801 28.7H358.527L354.742 11.6375H358.223ZM368.688 25.9343L371.465 11.6375H374.945L371.172 28.7H368.898L368.688 25.9343ZM366.332 11.6375L369.754 26.0515L369.66 28.7H367.621L363.977 14.0164L364.445 11.6375H366.332ZM382.105 28.9343C381.121 28.9343 380.238 28.7781 379.457 28.4656C378.676 28.1453 378.012 27.7039 377.465 27.1414C376.926 26.5789 376.512 25.9265 376.223 25.1843C375.934 24.4343 375.789 23.6375 375.789 22.7937V22.325C375.789 21.364 375.926 20.4851 376.199 19.6882C376.473 18.8914 376.863 18.2 377.371 17.614C377.887 17.0281 378.512 16.5789 379.246 16.2664C379.98 15.946 380.809 15.7859 381.73 15.7859C382.629 15.7859 383.426 15.9343 384.121 16.2312C384.816 16.5281 385.398 16.95 385.867 17.4968C386.344 18.0437 386.703 18.7 386.945 19.4656C387.188 20.2234 387.309 21.0671 387.309 21.9968V23.4031H377.23V21.1531H383.992V20.8953C383.992 20.4265 383.906 20.0085 383.734 19.6414C383.57 19.2664 383.32 18.9695 382.984 18.7507C382.648 18.532 382.219 18.4226 381.695 18.4226C381.25 18.4226 380.867 18.5203 380.547 18.7156C380.227 18.9109 379.965 19.1843 379.762 19.5359C379.566 19.8875 379.418 20.3015 379.316 20.7781C379.223 21.2468 379.176 21.7625 379.176 22.325V22.7937C379.176 23.3015 379.246 23.7703 379.387 24.2C379.535 24.6296 379.742 25.0007 380.008 25.3132C380.281 25.6257 380.609 25.8679 380.992 26.0398C381.383 26.2117 381.824 26.2976 382.316 26.2976C382.926 26.2976 383.492 26.1804 384.016 25.946C384.547 25.7039 385.004 25.3406 385.387 24.8562L387.027 26.6375C386.762 27.0203 386.398 27.3875 385.938 27.739C385.484 28.0906 384.938 28.3796 384.297 28.6062C383.656 28.825 382.926 28.9343 382.105 28.9343ZM392.793 10.7V28.7H389.406V10.7H392.793ZM399.883 28.7H396.484V14.8953C396.484 13.9343 396.672 13.1257 397.047 12.4695C397.43 11.8054 397.965 11.3054 398.652 10.9695C399.348 10.6257 400.172 10.4539 401.125 10.4539C401.438 10.4539 401.738 10.4773 402.027 10.5242C402.316 10.5632 402.598 10.614 402.871 10.6765L402.836 13.2195C402.688 13.1804 402.531 13.1531 402.367 13.1375C402.203 13.1218 402.012 13.114 401.793 13.114C401.387 13.114 401.039 13.1843 400.75 13.325C400.469 13.4578 400.254 13.657 400.105 13.9226C399.957 14.1882 399.883 14.5125 399.883 14.8953V28.7ZM402.414 16.0203V18.4109H394.598V16.0203H402.414ZM411.027 25.8406V20.1921C411.027 19.7859 410.961 19.4382 410.828 19.1492C410.695 18.8523 410.488 18.6218 410.207 18.4578C409.934 18.2937 409.578 18.2117 409.141 18.2117C408.766 18.2117 408.441 18.2781 408.168 18.4109C407.895 18.5359 407.684 18.7195 407.535 18.9617C407.387 19.196 407.312 19.4734 407.312 19.7937H403.938C403.938 19.2546 404.062 18.7429 404.312 18.2585C404.562 17.7742 404.926 17.3484 405.402 16.9812C405.879 16.6062 406.445 16.3132 407.102 16.1023C407.766 15.8914 408.508 15.7859 409.328 15.7859C410.312 15.7859 411.188 15.95 411.953 16.2781C412.719 16.6062 413.32 17.0984 413.758 17.7546C414.203 18.4109 414.426 19.2312 414.426 20.2156V25.6414C414.426 26.3367 414.469 26.907 414.555 27.3523C414.641 27.7898 414.766 28.1726 414.93 28.5007V28.7H411.52C411.355 28.3562 411.23 27.9265 411.145 27.4109C411.066 26.8875 411.027 26.364 411.027 25.8406ZM411.473 20.9773L411.496 22.8875H409.609C409.164 22.8875 408.777 22.9382 408.449 23.0398C408.121 23.1414 407.852 23.2859 407.641 23.4734C407.43 23.6531 407.273 23.864 407.172 24.1062C407.078 24.3484 407.031 24.614 407.031 24.9031C407.031 25.1921 407.098 25.4539 407.23 25.6882C407.363 25.9148 407.555 26.0945 407.805 26.2273C408.055 26.3523 408.348 26.4148 408.684 26.4148C409.191 26.4148 409.633 26.3132 410.008 26.1101C410.383 25.907 410.672 25.657 410.875 25.3601C411.086 25.0632 411.195 24.782 411.203 24.5164L412.094 25.946C411.969 26.2664 411.797 26.5984 411.578 26.9421C411.367 27.2859 411.098 27.6101 410.77 27.9148C410.441 28.2117 410.047 28.4578 409.586 28.6531C409.125 28.8406 408.578 28.9343 407.945 28.9343C407.141 28.9343 406.41 28.7742 405.754 28.4539C405.105 28.1257 404.59 27.6765 404.207 27.1062C403.832 26.5281 403.645 25.8718 403.645 25.1375C403.645 24.4734 403.77 23.8835 404.02 23.3679C404.27 22.8523 404.637 22.4187 405.121 22.0671C405.613 21.7078 406.227 21.4382 406.961 21.2585C407.695 21.071 408.547 20.9773 409.516 20.9773H411.473ZM420.402 18.7859V28.7H417.027V16.0203H420.203L420.402 18.7859ZM424.223 15.9382L424.164 19.0671C424 19.0437 423.801 19.0242 423.566 19.0085C423.34 18.9851 423.133 18.9734 422.945 18.9734C422.469 18.9734 422.055 19.0359 421.703 19.1609C421.359 19.2781 421.07 19.4539 420.836 19.6882C420.609 19.9226 420.438 20.2078 420.32 20.5437C420.211 20.8796 420.148 21.2625 420.133 21.6921L419.453 21.4812C419.453 20.6609 419.535 19.907 419.699 19.2195C419.863 18.5242 420.102 17.9187 420.414 17.4031C420.734 16.8875 421.125 16.489 421.586 16.2078C422.047 15.9265 422.574 15.7859 423.168 15.7859C423.355 15.7859 423.547 15.8015 423.742 15.8328C423.938 15.8562 424.098 15.8914 424.223 15.9382ZM431.418 28.9343C430.434 28.9343 429.551 28.7781 428.77 28.4656C427.988 28.1453 427.324 27.7039 426.777 27.1414C426.238 26.5789 425.824 25.9265 425.535 25.1843C425.246 24.4343 425.102 23.6375 425.102 22.7937V22.325C425.102 21.364 425.238 20.4851 425.512 19.6882C425.785 18.8914 426.176 18.2 426.684 17.614C427.199 17.0281 427.824 16.5789 428.559 16.2664C429.293 15.946 430.121 15.7859 431.043 15.7859C431.941 15.7859 432.738 15.9343 433.434 16.2312C434.129 16.5281 434.711 16.95 435.18 17.4968C435.656 18.0437 436.016 18.7 436.258 19.4656C436.5 20.2234 436.621 21.0671 436.621 21.9968V23.4031H426.543V21.1531H433.305V20.8953C433.305 20.4265 433.219 20.0085 433.047 19.6414C432.883 19.2664 432.633 18.9695 432.297 18.7507C431.961 18.532 431.531 18.4226 431.008 18.4226C430.562 18.4226 430.18 18.5203 429.859 18.7156C429.539 18.9109 429.277 19.1843 429.074 19.5359C428.879 19.8875 428.73 20.3015 428.629 20.7781C428.535 21.2468 428.488 21.7625 428.488 22.325V22.7937C428.488 23.3015 428.559 23.7703 428.699 24.2C428.848 24.6296 429.055 25.0007 429.32 25.3132C429.594 25.6257 429.922 25.8679 430.305 26.0398C430.695 26.2117 431.137 26.2976 431.629 26.2976C432.238 26.2976 432.805 26.1804 433.328 25.946C433.859 25.7039 434.316 25.3406 434.699 24.8562L436.34 26.6375C436.074 27.0203 435.711 27.3875 435.25 27.739C434.797 28.0906 434.25 28.3796 433.609 28.6062C432.969 28.825 432.238 28.9343 431.418 28.9343ZM453.613 24.2351C453.613 23.9304 453.566 23.657 453.473 23.4148C453.387 23.1648 453.223 22.9382 452.98 22.7351C452.738 22.5242 452.398 22.3171 451.961 22.114C451.523 21.9109 450.957 21.7 450.262 21.4812C449.488 21.2312 448.754 20.95 448.059 20.6375C447.371 20.325 446.762 19.9617 446.23 19.5476C445.707 19.1257 445.293 18.6375 444.988 18.0828C444.691 17.5281 444.543 16.8835 444.543 16.1492C444.543 15.4382 444.699 14.7937 445.012 14.2156C445.324 13.6296 445.762 13.1296 446.324 12.7156C446.887 12.2937 447.551 11.9695 448.316 11.7429C449.09 11.5164 449.938 11.4031 450.859 11.4031C452.117 11.4031 453.215 11.6296 454.152 12.0828C455.09 12.5359 455.816 13.157 456.332 13.946C456.855 14.7351 457.117 15.6375 457.117 16.6531H453.625C453.625 16.1531 453.52 15.7156 453.309 15.3406C453.105 14.9578 452.793 14.657 452.371 14.4382C451.957 14.2195 451.434 14.1101 450.801 14.1101C450.191 14.1101 449.684 14.2039 449.277 14.3914C448.871 14.571 448.566 14.8171 448.363 15.1296C448.16 15.4343 448.059 15.7781 448.059 16.1609C448.059 16.45 448.129 16.7117 448.27 16.946C448.418 17.1804 448.637 17.3992 448.926 17.6023C449.215 17.8054 449.57 17.9968 449.992 18.1765C450.414 18.3562 450.902 18.532 451.457 18.7039C452.387 18.9851 453.203 19.3015 453.906 19.6531C454.617 20.0046 455.211 20.3992 455.688 20.8367C456.164 21.2742 456.523 21.7703 456.766 22.325C457.008 22.8796 457.129 23.5085 457.129 24.2117C457.129 24.9539 456.984 25.6179 456.695 26.2039C456.406 26.7898 455.988 27.2859 455.441 27.6921C454.895 28.0984 454.242 28.407 453.484 28.6179C452.727 28.8289 451.879 28.9343 450.941 28.9343C450.098 28.9343 449.266 28.825 448.445 28.6062C447.625 28.3796 446.879 28.0398 446.207 27.5867C445.543 27.1335 445.012 26.5554 444.613 25.8523C444.215 25.1492 444.016 24.3171 444.016 23.3562H447.543C447.543 23.8875 447.625 24.3367 447.789 24.7039C447.953 25.071 448.184 25.3679 448.48 25.5945C448.785 25.821 449.145 25.9851 449.559 26.0867C449.98 26.1882 450.441 26.239 450.941 26.239C451.551 26.239 452.051 26.1531 452.441 25.9812C452.84 25.8093 453.133 25.571 453.32 25.2664C453.516 24.9617 453.613 24.6179 453.613 24.2351ZM458.77 22.489V22.2429C458.77 21.3132 458.902 20.4578 459.168 19.6765C459.434 18.8875 459.82 18.2039 460.328 17.6257C460.836 17.0476 461.461 16.5984 462.203 16.2781C462.945 15.95 463.797 15.7859 464.758 15.7859C465.719 15.7859 466.574 15.95 467.324 16.2781C468.074 16.5984 468.703 17.0476 469.211 17.6257C469.727 18.2039 470.117 18.8875 470.383 19.6765C470.648 20.4578 470.781 21.3132 470.781 22.2429V22.489C470.781 23.4109 470.648 24.2664 470.383 25.0554C470.117 25.8367 469.727 26.5203 469.211 27.1062C468.703 27.6843 468.078 28.1335 467.336 28.4539C466.594 28.7742 465.742 28.9343 464.781 28.9343C463.82 28.9343 462.965 28.7742 462.215 28.4539C461.473 28.1335 460.844 27.6843 460.328 27.1062C459.82 26.5203 459.434 25.8367 459.168 25.0554C458.902 24.2664 458.77 23.4109 458.77 22.489ZM462.145 22.2429V22.489C462.145 23.0203 462.191 23.5164 462.285 23.9773C462.379 24.4382 462.527 24.8445 462.73 25.196C462.941 25.5398 463.215 25.8093 463.551 26.0046C463.887 26.2 464.297 26.2976 464.781 26.2976C465.25 26.2976 465.652 26.2 465.988 26.0046C466.324 25.8093 466.594 25.5398 466.797 25.196C467 24.8445 467.148 24.4382 467.242 23.9773C467.344 23.5164 467.395 23.0203 467.395 22.489V22.2429C467.395 21.7273 467.344 21.2429 467.242 20.7898C467.148 20.3289 466.996 19.9226 466.785 19.571C466.582 19.2117 466.312 18.9304 465.977 18.7273C465.641 18.5242 465.234 18.4226 464.758 18.4226C464.281 18.4226 463.875 18.5242 463.539 18.7273C463.211 18.9304 462.941 19.2117 462.73 19.571C462.527 19.9226 462.379 20.3289 462.285 20.7898C462.191 21.2429 462.145 21.7273 462.145 22.2429ZM478.094 26.2976C478.508 26.2976 478.875 26.2195 479.195 26.0632C479.516 25.8992 479.766 25.6726 479.945 25.3835C480.133 25.0867 480.23 24.739 480.238 24.3406H483.414C483.406 25.2312 483.168 26.0242 482.699 26.7195C482.23 27.407 481.602 27.95 480.812 28.3484C480.023 28.739 479.141 28.9343 478.164 28.9343C477.18 28.9343 476.32 28.7703 475.586 28.4421C474.859 28.114 474.254 27.6609 473.77 27.0828C473.285 26.4968 472.922 25.8171 472.68 25.0437C472.438 24.2625 472.316 23.4265 472.316 22.5359V22.196C472.316 21.2976 472.438 20.4617 472.68 19.6882C472.922 18.907 473.285 18.2273 473.77 17.6492C474.254 17.0632 474.859 16.6062 475.586 16.2781C476.312 15.95 477.164 15.7859 478.141 15.7859C479.18 15.7859 480.09 15.9851 480.871 16.3835C481.66 16.782 482.277 17.3523 482.723 18.0945C483.176 18.8289 483.406 19.7 483.414 20.7078H480.238C480.23 20.2859 480.141 19.9031 479.969 19.5593C479.805 19.2156 479.562 18.9421 479.242 18.739C478.93 18.5281 478.543 18.4226 478.082 18.4226C477.59 18.4226 477.188 18.5281 476.875 18.739C476.562 18.9421 476.32 19.2234 476.148 19.5828C475.977 19.9343 475.855 20.3367 475.785 20.7898C475.723 21.2351 475.691 21.7039 475.691 22.196V22.5359C475.691 23.0281 475.723 23.5007 475.785 23.9539C475.848 24.407 475.965 24.8093 476.137 25.1609C476.316 25.5125 476.562 25.7898 476.875 25.9929C477.188 26.196 477.594 26.2976 478.094 26.2976ZM488.934 16.0203V28.7H485.547V16.0203H488.934ZM485.336 12.7156C485.336 12.2234 485.508 11.8171 485.852 11.4968C486.195 11.1765 486.656 11.0164 487.234 11.0164C487.805 11.0164 488.262 11.1765 488.605 11.4968C488.957 11.8171 489.133 12.2234 489.133 12.7156C489.133 13.2078 488.957 13.614 488.605 13.9343C488.262 14.2546 487.805 14.4148 487.234 14.4148C486.656 14.4148 486.195 14.2546 485.852 13.9343C485.508 13.614 485.336 13.2078 485.336 12.7156ZM497.559 28.9343C496.574 28.9343 495.691 28.7781 494.91 28.4656C494.129 28.1453 493.465 27.7039 492.918 27.1414C492.379 26.5789 491.965 25.9265 491.676 25.1843C491.387 24.4343 491.242 23.6375 491.242 22.7937V22.325C491.242 21.364 491.379 20.4851 491.652 19.6882C491.926 18.8914 492.316 18.2 492.824 17.614C493.34 17.0281 493.965 16.5789 494.699 16.2664C495.434 15.946 496.262 15.7859 497.184 15.7859C498.082 15.7859 498.879 15.9343 499.574 16.2312C500.27 16.5281 500.852 16.95 501.32 17.4968C501.797 18.0437 502.156 18.7 502.398 19.4656C502.641 20.2234 502.762 21.0671 502.762 21.9968V23.4031H492.684V21.1531H499.445V20.8953C499.445 20.4265 499.359 20.0085 499.188 19.6414C499.023 19.2664 498.773 18.9695 498.438 18.7507C498.102 18.532 497.672 18.4226 497.148 18.4226C496.703 18.4226 496.32 18.5203 496 18.7156C495.68 18.9109 495.418 19.1843 495.215 19.5359C495.02 19.8875 494.871 20.3015 494.77 20.7781C494.676 21.2468 494.629 21.7625 494.629 22.325V22.7937C494.629 23.3015 494.699 23.7703 494.84 24.2C494.988 24.6296 495.195 25.0007 495.461 25.3132C495.734 25.6257 496.062 25.8679 496.445 26.0398C496.836 26.2117 497.277 26.2976 497.77 26.2976C498.379 26.2976 498.945 26.1804 499.469 25.946C500 25.7039 500.457 25.3406 500.84 24.8562L502.48 26.6375C502.215 27.0203 501.852 27.3875 501.391 27.739C500.938 28.0906 500.391 28.3796 499.75 28.6062C499.109 28.825 498.379 28.9343 497.559 28.9343ZM510.895 16.0203V18.4109H503.512V16.0203H510.895ZM505.34 12.8914H508.715V24.8796C508.715 25.2468 508.762 25.5281 508.855 25.7234C508.957 25.9187 509.105 26.0554 509.301 26.1335C509.496 26.2039 509.742 26.239 510.039 26.239C510.25 26.239 510.438 26.2312 510.602 26.2156C510.773 26.1921 510.918 26.1687 511.035 26.1453L511.047 28.6296C510.758 28.7234 510.445 28.7976 510.109 28.8523C509.773 28.907 509.402 28.9343 508.996 28.9343C508.254 28.9343 507.605 28.8132 507.051 28.571C506.504 28.321 506.082 27.9226 505.785 27.3757C505.488 26.8289 505.34 26.1101 505.34 25.2195V12.8914ZM516.578 27.2703L519.941 16.0203H523.562L518.465 30.6101C518.355 30.9304 518.207 31.2742 518.02 31.6414C517.84 32.0085 517.594 32.3562 517.281 32.6843C516.977 33.0203 516.59 33.2937 516.121 33.5046C515.66 33.7156 515.094 33.821 514.422 33.821C514.102 33.821 513.84 33.8015 513.637 33.7625C513.434 33.7234 513.191 33.6687 512.91 33.5984V31.1257C512.996 31.1257 513.086 31.1257 513.18 31.1257C513.273 31.1335 513.363 31.1375 513.449 31.1375C513.895 31.1375 514.258 31.0867 514.539 30.9851C514.82 30.8835 515.047 30.7273 515.219 30.5164C515.391 30.3132 515.527 30.0476 515.629 29.7195L516.578 27.2703ZM515.172 16.0203L517.926 25.2078L518.406 28.782L516.109 29.0281L511.551 16.0203H515.172Z" fill="#21205C"/>
</svg>
