<svg width="31" height="32" viewBox="0 0 31 32" fill="none" xmlns="http://www.w3.org/2000/svg">
<path d="M15.6262 0.92206C9.37916 0.92206 3.44716 0.366059 1.18116 6.17706C0.245163 8.57706 0.381163 11.6981 0.381163 16.1641C0.381163 20.0831 0.255163 23.7641 1.18116 26.1491C3.44116 31.9771 9.42216 31.4151 15.6222 31.4151C21.6042 31.4151 27.7722 32.0381 30.0652 26.1541C31.0032 23.7281 30.8652 20.6541 30.8652 16.1691C30.8652 10.2131 31.1942 6.36906 28.3052 3.48106C25.3802 0.55606 21.4252 0.92306 15.6192 0.92306L15.6262 0.92206ZM14.2602 3.67006C27.2902 3.64906 28.9492 2.20106 28.0342 22.3251C27.7092 29.4421 22.2902 28.6611 15.6282 28.6611C3.48216 28.6611 3.12816 28.3131 3.12816 16.1611C3.12816 3.86906 4.09116 3.67606 14.2562 3.66106L14.2602 3.67006ZM23.7602 6.20106C23.3984 6.20106 23.0448 6.30833 22.744 6.5093C22.4432 6.71027 22.2088 6.99593 22.0704 7.33013C21.932 7.66434 21.8957 8.03209 21.9663 8.38688C22.0369 8.74167 22.2111 9.06757 22.4669 9.32336C22.7227 9.57915 23.0486 9.75334 23.4033 9.82392C23.7581 9.89449 24.1259 9.85827 24.4601 9.71984C24.7943 9.5814 25.0799 9.34698 25.2809 9.0462C25.4819 8.74542 25.5892 8.3918 25.5892 8.03006C25.5894 7.54532 25.3973 7.08031 25.0549 6.73717C24.7125 6.39404 24.2479 6.20085 23.7632 6.20006L23.7602 6.20106ZM15.6222 8.33906C14.0736 8.33847 12.5597 8.7971 11.2719 9.65696C9.98404 10.5168 8.98011 11.7393 8.38707 13.1697C7.79402 14.6002 7.63849 16.1744 7.94016 17.6932C8.24182 19.2121 8.98712 20.6073 10.0818 21.7026C11.1765 22.7978 12.5714 23.5438 14.0901 23.8463C15.6088 24.1487 17.1831 23.994 18.6138 23.4017C20.0446 22.8094 21.2675 21.8061 22.128 20.5187C22.9886 19.2313 23.448 17.7176 23.4482 16.1691C23.4484 14.093 22.6241 12.1019 21.1565 10.6335C19.6889 9.16518 17.6982 8.33986 15.6222 8.33906ZM15.6222 11.0871C22.3402 11.0871 22.3492 21.2511 15.6222 21.2511C8.89516 21.2511 8.89916 11.0861 15.6262 11.0861L15.6222 11.0871Z" fill="#181726"/>
</svg>
