<svg width="31" height="22" viewBox="0 0 31 22" fill="none" xmlns="http://www.w3.org/2000/svg">
<path d="M30.8031 7.96903C30.7214 6.54683 30.549 5.13129 30.2871 3.73103C30.1692 2.98972 29.8144 2.30654 29.2757 1.78376C28.7371 1.26098 28.0436 0.926723 27.2991 0.83103C26.4155 0.67144 25.5233 0.563588 24.6271 0.508028C19.6491 0.188028 14.6651 0.189028 9.68008 0.362028C7.82662 0.377245 5.97711 0.53572 4.14808 0.836031C3.34927 0.99478 2.62437 1.41061 2.08408 2.02003C1.44756 2.80144 1.07537 3.76464 1.02108 4.77103C0.619623 7.73366 0.522449 10.7296 0.731079 13.712C0.823079 15.13 1.03108 16.546 1.23908 17.954C1.40455 18.8615 1.92265 19.6665 2.68008 20.193C3.46067 20.7131 4.37331 21 5.31108 21.02C8.78808 21.394 12.2841 21.365 15.9171 21.438C17.6171 21.404 19.4571 21.385 21.2981 21.325C23.319 21.3149 25.3364 21.1531 27.3331 20.841C28.2742 20.6703 29.1129 20.1426 29.6741 19.368C30.1707 18.6265 30.4622 17.7667 30.5191 16.876C30.9162 13.9244 31.0114 10.94 30.8031 7.96903ZM12.7541 15.386V6.27503L20.6421 10.831L12.7541 15.386Z" fill="#181726"/>
</svg>
