<svg width="382" height="25" viewBox="0 0 382 25" fill="none" xmlns="http://www.w3.org/2000/svg">
<path d="M5.63672 16.293L9.03516 1.9375H10.9336L11.3672 4.32812L7.74609 19H5.70703L5.63672 16.293ZM3.89062 1.9375L6.70312 16.293L6.46875 19H4.19531L0.410156 1.9375H3.89062ZM14.3555 16.2344L17.1328 1.9375H20.6133L16.8398 19H14.5664L14.3555 16.2344ZM12 1.9375L15.4219 16.3516L15.3281 19H13.2891L9.64453 4.31641L10.1133 1.9375H12ZM21.3984 12.7891V12.543C21.3984 11.6133 21.5312 10.7578 21.7969 9.97656C22.0625 9.1875 22.4492 8.50391 22.957 7.92578C23.4648 7.34766 24.0898 6.89844 24.832 6.57812C25.5742 6.25 26.4258 6.08594 27.3867 6.08594C28.3477 6.08594 29.2031 6.25 29.9531 6.57812C30.7031 6.89844 31.332 7.34766 31.8398 7.92578C32.3555 8.50391 32.7461 9.1875 33.0117 9.97656C33.2773 10.7578 33.4102 11.6133 33.4102 12.543V12.7891C33.4102 13.7109 33.2773 14.5664 33.0117 15.3555C32.7461 16.1367 32.3555 16.8203 31.8398 17.4062C31.332 17.9844 30.707 18.4336 29.9648 18.7539C29.2227 19.0742 28.3711 19.2344 27.4102 19.2344C26.4492 19.2344 25.5938 19.0742 24.8438 18.7539C24.1016 18.4336 23.4727 17.9844 22.957 17.4062C22.4492 16.8203 22.0625 16.1367 21.7969 15.3555C21.5312 14.5664 21.3984 13.7109 21.3984 12.7891ZM24.7734 12.543V12.7891C24.7734 13.3203 24.8203 13.8164 24.9141 14.2773C25.0078 14.7383 25.1562 15.1445 25.3594 15.4961C25.5703 15.8398 25.8438 16.1094 26.1797 16.3047C26.5156 16.5 26.9258 16.5977 27.4102 16.5977C27.8789 16.5977 28.2812 16.5 28.6172 16.3047C28.9531 16.1094 29.2227 15.8398 29.4258 15.4961C29.6289 15.1445 29.7773 14.7383 29.8711 14.2773C29.9727 13.8164 30.0234 13.3203 30.0234 12.7891V12.543C30.0234 12.0273 29.9727 11.543 29.8711 11.0898C29.7773 10.6289 29.625 10.2227 29.4141 9.87109C29.2109 9.51172 28.9414 9.23047 28.6055 9.02734C28.2695 8.82422 27.8633 8.72266 27.3867 8.72266C26.9102 8.72266 26.5039 8.82422 26.168 9.02734C25.8398 9.23047 25.5703 9.51172 25.3594 9.87109C25.1562 10.2227 25.0078 10.6289 24.9141 11.0898C24.8203 11.543 24.7734 12.0273 24.7734 12.543ZM38.8594 9.08594V19H35.4844V6.32031H38.6602L38.8594 9.08594ZM42.6797 6.23828L42.6211 9.36719C42.457 9.34375 42.2578 9.32422 42.0234 9.30859C41.7969 9.28516 41.5898 9.27344 41.4023 9.27344C40.9258 9.27344 40.5117 9.33594 40.1602 9.46094C39.8164 9.57812 39.5273 9.75391 39.293 9.98828C39.0664 10.2227 38.8945 10.5078 38.7773 10.8438C38.668 11.1797 38.6055 11.5625 38.5898 11.9922L37.9102 11.7812C37.9102 10.9609 37.9922 10.207 38.1562 9.51953C38.3203 8.82422 38.5586 8.21875 38.8711 7.70312C39.1914 7.1875 39.582 6.78906 40.043 6.50781C40.5039 6.22656 41.0312 6.08594 41.625 6.08594C41.8125 6.08594 42.0039 6.10156 42.1992 6.13281C42.3945 6.15625 42.5547 6.19141 42.6797 6.23828ZM47.8359 1V19H44.4492V1H47.8359ZM58.1133 16.2344V1H61.5117V19H58.4531L58.1133 16.2344ZM50.0977 12.8125V12.5664C50.0977 11.5977 50.207 10.7188 50.4258 9.92969C50.6445 9.13281 50.9648 8.44922 51.3867 7.87891C51.8086 7.30859 52.3281 6.86719 52.9453 6.55469C53.5625 6.24219 54.2656 6.08594 55.0547 6.08594C55.7969 6.08594 56.4453 6.24219 57 6.55469C57.5625 6.86719 58.0391 7.3125 58.4297 7.89062C58.8281 8.46094 59.1484 9.13672 59.3906 9.91797C59.6328 10.6914 59.8086 11.5391 59.918 12.4609V13C59.8086 13.8828 59.6328 14.7031 59.3906 15.4609C59.1484 16.2188 58.8281 16.8828 58.4297 17.4531C58.0391 18.0156 57.5625 18.4531 57 18.7656C56.4375 19.0781 55.7812 19.2344 55.0312 19.2344C54.2422 19.2344 53.5391 19.0742 52.9219 18.7539C52.3125 18.4336 51.7969 17.9844 51.375 17.4062C50.9609 16.8281 50.6445 16.1484 50.4258 15.3672C50.207 14.5859 50.0977 13.7344 50.0977 12.8125ZM53.4727 12.5664V12.8125C53.4727 13.3359 53.5117 13.8242 53.5898 14.2773C53.6758 14.7305 53.8125 15.1328 54 15.4844C54.1953 15.8281 54.4453 16.0977 54.75 16.293C55.0625 16.4805 55.4414 16.5742 55.8867 16.5742C56.4648 16.5742 56.9414 16.4453 57.3164 16.1875C57.6914 15.9219 57.9766 15.5586 58.1719 15.0977C58.375 14.6367 58.4922 14.1055 58.5234 13.5039V11.9688C58.5 11.4766 58.4297 11.0352 58.3125 10.6445C58.2031 10.2461 58.0391 9.90625 57.8203 9.625C57.6094 9.34375 57.3438 9.125 57.0234 8.96875C56.7109 8.8125 56.3398 8.73438 55.9102 8.73438C55.4727 8.73438 55.0977 8.83594 54.7852 9.03906C54.4727 9.23438 54.2188 9.50391 54.0234 9.84766C53.8359 10.1914 53.6953 10.5977 53.6016 11.0664C53.5156 11.5273 53.4727 12.0273 53.4727 12.5664ZM67.7695 15.7188L70.4062 6.32031H72.5508L71.8594 10.0117L69.2227 19H67.4297L67.7695 15.7188ZM66.4336 6.32031L68.3203 15.707L68.4961 19H66.3867L63.1758 6.32031H66.4336ZM74.9648 15.5547L76.8047 6.32031H80.0742L76.8633 19H74.7656L74.9648 15.5547ZM72.8438 6.32031L75.4688 15.6484L75.832 19H74.0273L71.3906 10.0234L70.7227 6.32031H72.8438ZM85.3359 6.32031V19H81.9492V6.32031H85.3359ZM81.7383 3.01562C81.7383 2.52344 81.9102 2.11719 82.2539 1.79688C82.5977 1.47656 83.0586 1.31641 83.6367 1.31641C84.207 1.31641 84.6641 1.47656 85.0078 1.79688C85.3594 2.11719 85.5352 2.52344 85.5352 3.01562C85.5352 3.50781 85.3594 3.91406 85.0078 4.23438C84.6641 4.55469 84.207 4.71484 83.6367 4.71484C83.0586 4.71484 82.5977 4.55469 82.2539 4.23438C81.9102 3.91406 81.7383 3.50781 81.7383 3.01562ZM95.6133 16.2344V1H99.0117V19H95.9531L95.6133 16.2344ZM87.5977 12.8125V12.5664C87.5977 11.5977 87.707 10.7188 87.9258 9.92969C88.1445 9.13281 88.4648 8.44922 88.8867 7.87891C89.3086 7.30859 89.8281 6.86719 90.4453 6.55469C91.0625 6.24219 91.7656 6.08594 92.5547 6.08594C93.2969 6.08594 93.9453 6.24219 94.5 6.55469C95.0625 6.86719 95.5391 7.3125 95.9297 7.89062C96.3281 8.46094 96.6484 9.13672 96.8906 9.91797C97.1328 10.6914 97.3086 11.5391 97.418 12.4609V13C97.3086 13.8828 97.1328 14.7031 96.8906 15.4609C96.6484 16.2188 96.3281 16.8828 95.9297 17.4531C95.5391 18.0156 95.0625 18.4531 94.5 18.7656C93.9375 19.0781 93.2812 19.2344 92.5312 19.2344C91.7422 19.2344 91.0391 19.0742 90.4219 18.7539C89.8125 18.4336 89.2969 17.9844 88.875 17.4062C88.4609 16.8281 88.1445 16.1484 87.9258 15.3672C87.707 14.5859 87.5977 13.7344 87.5977 12.8125ZM90.9727 12.5664V12.8125C90.9727 13.3359 91.0117 13.8242 91.0898 14.2773C91.1758 14.7305 91.3125 15.1328 91.5 15.4844C91.6953 15.8281 91.9453 16.0977 92.25 16.293C92.5625 16.4805 92.9414 16.5742 93.3867 16.5742C93.9648 16.5742 94.4414 16.4453 94.8164 16.1875C95.1914 15.9219 95.4766 15.5586 95.6719 15.0977C95.875 14.6367 95.9922 14.1055 96.0234 13.5039V11.9688C96 11.4766 95.9297 11.0352 95.8125 10.6445C95.7031 10.2461 95.5391 9.90625 95.3203 9.625C95.1094 9.34375 94.8438 9.125 94.5234 8.96875C94.2109 8.8125 93.8398 8.73438 93.4102 8.73438C92.9727 8.73438 92.5977 8.83594 92.2852 9.03906C91.9727 9.23438 91.7188 9.50391 91.5234 9.84766C91.3359 10.1914 91.1953 10.5977 91.1016 11.0664C91.0156 11.5273 90.9727 12.0273 90.9727 12.5664ZM107.484 19.2344C106.5 19.2344 105.617 19.0781 104.836 18.7656C104.055 18.4453 103.391 18.0039 102.844 17.4414C102.305 16.8789 101.891 16.2266 101.602 15.4844C101.312 14.7344 101.168 13.9375 101.168 13.0938V12.625C101.168 11.6641 101.305 10.7852 101.578 9.98828C101.852 9.19141 102.242 8.5 102.75 7.91406C103.266 7.32812 103.891 6.87891 104.625 6.56641C105.359 6.24609 106.188 6.08594 107.109 6.08594C108.008 6.08594 108.805 6.23438 109.5 6.53125C110.195 6.82812 110.777 7.25 111.246 7.79688C111.723 8.34375 112.082 9 112.324 9.76562C112.566 10.5234 112.688 11.3672 112.688 12.2969V13.7031H102.609V11.4531H109.371V11.1953C109.371 10.7266 109.285 10.3086 109.113 9.94141C108.949 9.56641 108.699 9.26953 108.363 9.05078C108.027 8.83203 107.598 8.72266 107.074 8.72266C106.629 8.72266 106.246 8.82031 105.926 9.01562C105.605 9.21094 105.344 9.48438 105.141 9.83594C104.945 10.1875 104.797 10.6016 104.695 11.0781C104.602 11.5469 104.555 12.0625 104.555 12.625V13.0938C104.555 13.6016 104.625 14.0703 104.766 14.5C104.914 14.9297 105.121 15.3008 105.387 15.6133C105.66 15.9258 105.988 16.168 106.371 16.3398C106.762 16.5117 107.203 16.5977 107.695 16.5977C108.305 16.5977 108.871 16.4805 109.395 16.2461C109.926 16.0039 110.383 15.6406 110.766 15.1562L112.406 16.9375C112.141 17.3203 111.777 17.6875 111.316 18.0391C110.863 18.3906 110.316 18.6797 109.676 18.9062C109.035 19.125 108.305 19.2344 107.484 19.2344ZM122.402 1.9375H125.379L129.762 14.4648L134.145 1.9375H137.121L130.957 19H128.566L122.402 1.9375ZM120.797 1.9375H123.762L124.301 14.1484V19H120.797V1.9375ZM135.762 1.9375H138.738V19H135.223V14.1484L135.762 1.9375ZM148.453 16.1406V10.4922C148.453 10.0859 148.387 9.73828 148.254 9.44922C148.121 9.15234 147.914 8.92188 147.633 8.75781C147.359 8.59375 147.004 8.51172 146.566 8.51172C146.191 8.51172 145.867 8.57812 145.594 8.71094C145.32 8.83594 145.109 9.01953 144.961 9.26172C144.812 9.49609 144.738 9.77344 144.738 10.0938H141.363C141.363 9.55469 141.488 9.04297 141.738 8.55859C141.988 8.07422 142.352 7.64844 142.828 7.28125C143.305 6.90625 143.871 6.61328 144.527 6.40234C145.191 6.19141 145.934 6.08594 146.754 6.08594C147.738 6.08594 148.613 6.25 149.379 6.57812C150.145 6.90625 150.746 7.39844 151.184 8.05469C151.629 8.71094 151.852 9.53125 151.852 10.5156V15.9414C151.852 16.6367 151.895 17.207 151.98 17.6523C152.066 18.0898 152.191 18.4727 152.355 18.8008V19H148.945C148.781 18.6562 148.656 18.2266 148.57 17.7109C148.492 17.1875 148.453 16.6641 148.453 16.1406ZM148.898 11.2773L148.922 13.1875H147.035C146.59 13.1875 146.203 13.2383 145.875 13.3398C145.547 13.4414 145.277 13.5859 145.066 13.7734C144.855 13.9531 144.699 14.1641 144.598 14.4062C144.504 14.6484 144.457 14.9141 144.457 15.2031C144.457 15.4922 144.523 15.7539 144.656 15.9883C144.789 16.2148 144.98 16.3945 145.23 16.5273C145.48 16.6523 145.773 16.7148 146.109 16.7148C146.617 16.7148 147.059 16.6133 147.434 16.4102C147.809 16.207 148.098 15.957 148.301 15.6602C148.512 15.3633 148.621 15.082 148.629 14.8164L149.52 16.2461C149.395 16.5664 149.223 16.8984 149.004 17.2422C148.793 17.5859 148.523 17.9102 148.195 18.2148C147.867 18.5117 147.473 18.7578 147.012 18.9531C146.551 19.1406 146.004 19.2344 145.371 19.2344C144.566 19.2344 143.836 19.0742 143.18 18.7539C142.531 18.4258 142.016 17.9766 141.633 17.4062C141.258 16.8281 141.07 16.1719 141.07 15.4375C141.07 14.7734 141.195 14.1836 141.445 13.668C141.695 13.1523 142.062 12.7188 142.547 12.3672C143.039 12.0078 143.652 11.7383 144.387 11.5586C145.121 11.3711 145.973 11.2773 146.941 11.2773H148.898ZM157.758 9.02734V19H154.383V6.32031H157.547L157.758 9.02734ZM157.266 12.2148H156.352C156.352 11.2773 156.473 10.4336 156.715 9.68359C156.957 8.92578 157.297 8.28125 157.734 7.75C158.172 7.21094 158.691 6.80078 159.293 6.51953C159.902 6.23047 160.582 6.08594 161.332 6.08594C161.926 6.08594 162.469 6.17188 162.961 6.34375C163.453 6.51562 163.875 6.78906 164.227 7.16406C164.586 7.53906 164.859 8.03516 165.047 8.65234C165.242 9.26953 165.34 10.0234 165.34 10.9141V19H161.941V10.9023C161.941 10.3398 161.863 9.90234 161.707 9.58984C161.551 9.27734 161.32 9.05859 161.016 8.93359C160.719 8.80078 160.352 8.73438 159.914 8.73438C159.461 8.73438 159.066 8.82422 158.73 9.00391C158.402 9.18359 158.129 9.43359 157.91 9.75391C157.699 10.0664 157.539 10.4336 157.43 10.8555C157.32 11.2773 157.266 11.7305 157.266 12.2148ZM174.75 16.1406V10.4922C174.75 10.0859 174.684 9.73828 174.551 9.44922C174.418 9.15234 174.211 8.92188 173.93 8.75781C173.656 8.59375 173.301 8.51172 172.863 8.51172C172.488 8.51172 172.164 8.57812 171.891 8.71094C171.617 8.83594 171.406 9.01953 171.258 9.26172C171.109 9.49609 171.035 9.77344 171.035 10.0938H167.66C167.66 9.55469 167.785 9.04297 168.035 8.55859C168.285 8.07422 168.648 7.64844 169.125 7.28125C169.602 6.90625 170.168 6.61328 170.824 6.40234C171.488 6.19141 172.23 6.08594 173.051 6.08594C174.035 6.08594 174.91 6.25 175.676 6.57812C176.441 6.90625 177.043 7.39844 177.48 8.05469C177.926 8.71094 178.148 9.53125 178.148 10.5156V15.9414C178.148 16.6367 178.191 17.207 178.277 17.6523C178.363 18.0898 178.488 18.4727 178.652 18.8008V19H175.242C175.078 18.6562 174.953 18.2266 174.867 17.7109C174.789 17.1875 174.75 16.6641 174.75 16.1406ZM175.195 11.2773L175.219 13.1875H173.332C172.887 13.1875 172.5 13.2383 172.172 13.3398C171.844 13.4414 171.574 13.5859 171.363 13.7734C171.152 13.9531 170.996 14.1641 170.895 14.4062C170.801 14.6484 170.754 14.9141 170.754 15.2031C170.754 15.4922 170.82 15.7539 170.953 15.9883C171.086 16.2148 171.277 16.3945 171.527 16.5273C171.777 16.6523 172.07 16.7148 172.406 16.7148C172.914 16.7148 173.355 16.6133 173.73 16.4102C174.105 16.207 174.395 15.957 174.598 15.6602C174.809 15.3633 174.918 15.082 174.926 14.8164L175.816 16.2461C175.691 16.5664 175.52 16.8984 175.301 17.2422C175.09 17.5859 174.82 17.9102 174.492 18.2148C174.164 18.5117 173.77 18.7578 173.309 18.9531C172.848 19.1406 172.301 19.2344 171.668 19.2344C170.863 19.2344 170.133 19.0742 169.477 18.7539C168.828 18.4258 168.312 17.9766 167.93 17.4062C167.555 16.8281 167.367 16.1719 167.367 15.4375C167.367 14.7734 167.492 14.1836 167.742 13.668C167.992 13.1523 168.359 12.7188 168.844 12.3672C169.336 12.0078 169.949 11.7383 170.684 11.5586C171.418 11.3711 172.27 11.2773 173.238 11.2773H175.195ZM188.777 6.32031H191.836V18.5781C191.836 19.7344 191.578 20.7148 191.062 21.5195C190.555 22.332 189.844 22.9453 188.93 23.3594C188.016 23.7812 186.953 23.9922 185.742 23.9922C185.211 23.9922 184.648 23.9219 184.055 23.7812C183.469 23.6406 182.906 23.4219 182.367 23.125C181.836 22.8281 181.391 22.4531 181.031 22L182.52 20.0078C182.91 20.4609 183.363 20.8125 183.879 21.0625C184.395 21.3203 184.965 21.4492 185.59 21.4492C186.199 21.4492 186.715 21.3359 187.137 21.1094C187.559 20.8906 187.883 20.5664 188.109 20.1367C188.336 19.7148 188.449 19.2031 188.449 18.6016V9.25L188.777 6.32031ZM180.246 12.8125V12.5664C180.246 11.5977 180.363 10.7188 180.598 9.92969C180.84 9.13281 181.18 8.44922 181.617 7.87891C182.062 7.30859 182.602 6.86719 183.234 6.55469C183.867 6.24219 184.582 6.08594 185.379 6.08594C186.223 6.08594 186.93 6.24219 187.5 6.55469C188.07 6.86719 188.539 7.3125 188.906 7.89062C189.273 8.46094 189.559 9.13672 189.762 9.91797C189.973 10.6914 190.137 11.5391 190.254 12.4609V13C190.137 13.8828 189.961 14.7031 189.727 15.4609C189.492 16.2188 189.184 16.8828 188.801 17.4531C188.418 18.0156 187.941 18.4531 187.371 18.7656C186.809 19.0781 186.137 19.2344 185.355 19.2344C184.574 19.2344 183.867 19.0742 183.234 18.7539C182.609 18.4336 182.074 17.9844 181.629 17.4062C181.184 16.8281 180.84 16.1484 180.598 15.3672C180.363 14.5859 180.246 13.7344 180.246 12.8125ZM183.621 12.5664V12.8125C183.621 13.3359 183.672 13.8242 183.773 14.2773C183.875 14.7305 184.031 15.1328 184.242 15.4844C184.461 15.8281 184.73 16.0977 185.051 16.293C185.379 16.4805 185.766 16.5742 186.211 16.5742C186.828 16.5742 187.332 16.4453 187.723 16.1875C188.113 15.9219 188.406 15.5586 188.602 15.0977C188.797 14.6367 188.91 14.1055 188.941 13.5039V11.9688C188.926 11.4766 188.859 11.0352 188.742 10.6445C188.625 10.2461 188.461 9.90625 188.25 9.625C188.039 9.34375 187.766 9.125 187.43 8.96875C187.094 8.8125 186.695 8.73438 186.234 8.73438C185.789 8.73438 185.402 8.83594 185.074 9.03906C184.754 9.23438 184.484 9.50391 184.266 9.84766C184.055 10.1914 183.895 10.5977 183.785 11.0664C183.676 11.5273 183.621 12.0273 183.621 12.5664ZM200.297 19.2344C199.312 19.2344 198.43 19.0781 197.648 18.7656C196.867 18.4453 196.203 18.0039 195.656 17.4414C195.117 16.8789 194.703 16.2266 194.414 15.4844C194.125 14.7344 193.98 13.9375 193.98 13.0938V12.625C193.98 11.6641 194.117 10.7852 194.391 9.98828C194.664 9.19141 195.055 8.5 195.562 7.91406C196.078 7.32812 196.703 6.87891 197.438 6.56641C198.172 6.24609 199 6.08594 199.922 6.08594C200.82 6.08594 201.617 6.23438 202.312 6.53125C203.008 6.82812 203.59 7.25 204.059 7.79688C204.535 8.34375 204.895 9 205.137 9.76562C205.379 10.5234 205.5 11.3672 205.5 12.2969V13.7031H195.422V11.4531H202.184V11.1953C202.184 10.7266 202.098 10.3086 201.926 9.94141C201.762 9.56641 201.512 9.26953 201.176 9.05078C200.84 8.83203 200.41 8.72266 199.887 8.72266C199.441 8.72266 199.059 8.82031 198.738 9.01562C198.418 9.21094 198.156 9.48438 197.953 9.83594C197.758 10.1875 197.609 10.6016 197.508 11.0781C197.414 11.5469 197.367 12.0625 197.367 12.625V13.0938C197.367 13.6016 197.438 14.0703 197.578 14.5C197.727 14.9297 197.934 15.3008 198.199 15.6133C198.473 15.9258 198.801 16.168 199.184 16.3398C199.574 16.5117 200.016 16.5977 200.508 16.5977C201.117 16.5977 201.684 16.4805 202.207 16.2461C202.738 16.0039 203.195 15.6406 203.578 15.1562L205.219 16.9375C204.953 17.3203 204.59 17.6875 204.129 18.0391C203.676 18.3906 203.129 18.6797 202.488 18.9062C201.848 19.125 201.117 19.2344 200.297 19.2344ZM217.723 16.293L221.121 1.9375H223.02L223.453 4.32812L219.832 19H217.793L217.723 16.293ZM215.977 1.9375L218.789 16.293L218.555 19H216.281L212.496 1.9375H215.977ZM226.441 16.2344L229.219 1.9375H232.699L228.926 19H226.652L226.441 16.2344ZM224.086 1.9375L227.508 16.3516L227.414 19H225.375L221.73 4.31641L222.199 1.9375H224.086ZM239.859 19.2344C238.875 19.2344 237.992 19.0781 237.211 18.7656C236.43 18.4453 235.766 18.0039 235.219 17.4414C234.68 16.8789 234.266 16.2266 233.977 15.4844C233.688 14.7344 233.543 13.9375 233.543 13.0938V12.625C233.543 11.6641 233.68 10.7852 233.953 9.98828C234.227 9.19141 234.617 8.5 235.125 7.91406C235.641 7.32812 236.266 6.87891 237 6.56641C237.734 6.24609 238.562 6.08594 239.484 6.08594C240.383 6.08594 241.18 6.23438 241.875 6.53125C242.57 6.82812 243.152 7.25 243.621 7.79688C244.098 8.34375 244.457 9 244.699 9.76562C244.941 10.5234 245.062 11.3672 245.062 12.2969V13.7031H234.984V11.4531H241.746V11.1953C241.746 10.7266 241.66 10.3086 241.488 9.94141C241.324 9.56641 241.074 9.26953 240.738 9.05078C240.402 8.83203 239.973 8.72266 239.449 8.72266C239.004 8.72266 238.621 8.82031 238.301 9.01562C237.98 9.21094 237.719 9.48438 237.516 9.83594C237.32 10.1875 237.172 10.6016 237.07 11.0781C236.977 11.5469 236.93 12.0625 236.93 12.625V13.0938C236.93 13.6016 237 14.0703 237.141 14.5C237.289 14.9297 237.496 15.3008 237.762 15.6133C238.035 15.9258 238.363 16.168 238.746 16.3398C239.137 16.5117 239.578 16.5977 240.07 16.5977C240.68 16.5977 241.246 16.4805 241.77 16.2461C242.301 16.0039 242.758 15.6406 243.141 15.1562L244.781 16.9375C244.516 17.3203 244.152 17.6875 243.691 18.0391C243.238 18.3906 242.691 18.6797 242.051 18.9062C241.41 19.125 240.68 19.2344 239.859 19.2344ZM250.547 1V19H247.16V1H250.547ZM257.637 19H254.238V5.19531C254.238 4.23438 254.426 3.42578 254.801 2.76953C255.184 2.10547 255.719 1.60547 256.406 1.26953C257.102 0.925781 257.926 0.753906 258.879 0.753906C259.191 0.753906 259.492 0.777344 259.781 0.824219C260.07 0.863281 260.352 0.914063 260.625 0.976562L260.59 3.51953C260.441 3.48047 260.285 3.45312 260.121 3.4375C259.957 3.42188 259.766 3.41406 259.547 3.41406C259.141 3.41406 258.793 3.48438 258.504 3.625C258.223 3.75781 258.008 3.95703 257.859 4.22266C257.711 4.48828 257.637 4.8125 257.637 5.19531V19ZM260.168 6.32031V8.71094H252.352V6.32031H260.168ZM268.781 16.1406V10.4922C268.781 10.0859 268.715 9.73828 268.582 9.44922C268.449 9.15234 268.242 8.92188 267.961 8.75781C267.688 8.59375 267.332 8.51172 266.895 8.51172C266.52 8.51172 266.195 8.57812 265.922 8.71094C265.648 8.83594 265.438 9.01953 265.289 9.26172C265.141 9.49609 265.066 9.77344 265.066 10.0938H261.691C261.691 9.55469 261.816 9.04297 262.066 8.55859C262.316 8.07422 262.68 7.64844 263.156 7.28125C263.633 6.90625 264.199 6.61328 264.855 6.40234C265.52 6.19141 266.262 6.08594 267.082 6.08594C268.066 6.08594 268.941 6.25 269.707 6.57812C270.473 6.90625 271.074 7.39844 271.512 8.05469C271.957 8.71094 272.18 9.53125 272.18 10.5156V15.9414C272.18 16.6367 272.223 17.207 272.309 17.6523C272.395 18.0898 272.52 18.4727 272.684 18.8008V19H269.273C269.109 18.6562 268.984 18.2266 268.898 17.7109C268.82 17.1875 268.781 16.6641 268.781 16.1406ZM269.227 11.2773L269.25 13.1875H267.363C266.918 13.1875 266.531 13.2383 266.203 13.3398C265.875 13.4414 265.605 13.5859 265.395 13.7734C265.184 13.9531 265.027 14.1641 264.926 14.4062C264.832 14.6484 264.785 14.9141 264.785 15.2031C264.785 15.4922 264.852 15.7539 264.984 15.9883C265.117 16.2148 265.309 16.3945 265.559 16.5273C265.809 16.6523 266.102 16.7148 266.438 16.7148C266.945 16.7148 267.387 16.6133 267.762 16.4102C268.137 16.207 268.426 15.957 268.629 15.6602C268.84 15.3633 268.949 15.082 268.957 14.8164L269.848 16.2461C269.723 16.5664 269.551 16.8984 269.332 17.2422C269.121 17.5859 268.852 17.9102 268.523 18.2148C268.195 18.5117 267.801 18.7578 267.34 18.9531C266.879 19.1406 266.332 19.2344 265.699 19.2344C264.895 19.2344 264.164 19.0742 263.508 18.7539C262.859 18.4258 262.344 17.9766 261.961 17.4062C261.586 16.8281 261.398 16.1719 261.398 15.4375C261.398 14.7734 261.523 14.1836 261.773 13.668C262.023 13.1523 262.391 12.7188 262.875 12.3672C263.367 12.0078 263.98 11.7383 264.715 11.5586C265.449 11.3711 266.301 11.2773 267.27 11.2773H269.227ZM278.156 9.08594V19H274.781V6.32031H277.957L278.156 9.08594ZM281.977 6.23828L281.918 9.36719C281.754 9.34375 281.555 9.32422 281.32 9.30859C281.094 9.28516 280.887 9.27344 280.699 9.27344C280.223 9.27344 279.809 9.33594 279.457 9.46094C279.113 9.57812 278.824 9.75391 278.59 9.98828C278.363 10.2227 278.191 10.5078 278.074 10.8438C277.965 11.1797 277.902 11.5625 277.887 11.9922L277.207 11.7812C277.207 10.9609 277.289 10.207 277.453 9.51953C277.617 8.82422 277.855 8.21875 278.168 7.70312C278.488 7.1875 278.879 6.78906 279.34 6.50781C279.801 6.22656 280.328 6.08594 280.922 6.08594C281.109 6.08594 281.301 6.10156 281.496 6.13281C281.691 6.15625 281.852 6.19141 281.977 6.23828ZM289.172 19.2344C288.188 19.2344 287.305 19.0781 286.523 18.7656C285.742 18.4453 285.078 18.0039 284.531 17.4414C283.992 16.8789 283.578 16.2266 283.289 15.4844C283 14.7344 282.855 13.9375 282.855 13.0938V12.625C282.855 11.6641 282.992 10.7852 283.266 9.98828C283.539 9.19141 283.93 8.5 284.438 7.91406C284.953 7.32812 285.578 6.87891 286.312 6.56641C287.047 6.24609 287.875 6.08594 288.797 6.08594C289.695 6.08594 290.492 6.23438 291.188 6.53125C291.883 6.82812 292.465 7.25 292.934 7.79688C293.41 8.34375 293.77 9 294.012 9.76562C294.254 10.5234 294.375 11.3672 294.375 12.2969V13.7031H284.297V11.4531H291.059V11.1953C291.059 10.7266 290.973 10.3086 290.801 9.94141C290.637 9.56641 290.387 9.26953 290.051 9.05078C289.715 8.83203 289.285 8.72266 288.762 8.72266C288.316 8.72266 287.934 8.82031 287.613 9.01562C287.293 9.21094 287.031 9.48438 286.828 9.83594C286.633 10.1875 286.484 10.6016 286.383 11.0781C286.289 11.5469 286.242 12.0625 286.242 12.625V13.0938C286.242 13.6016 286.312 14.0703 286.453 14.5C286.602 14.9297 286.809 15.3008 287.074 15.6133C287.348 15.9258 287.676 16.168 288.059 16.3398C288.449 16.5117 288.891 16.5977 289.383 16.5977C289.992 16.5977 290.559 16.4805 291.082 16.2461C291.613 16.0039 292.07 15.6406 292.453 15.1562L294.094 16.9375C293.828 17.3203 293.465 17.6875 293.004 18.0391C292.551 18.3906 292.004 18.6797 291.363 18.9062C290.723 19.125 289.992 19.2344 289.172 19.2344ZM311.367 14.5352C311.367 14.2305 311.32 13.957 311.227 13.7148C311.141 13.4648 310.977 13.2383 310.734 13.0352C310.492 12.8242 310.152 12.6172 309.715 12.4141C309.277 12.2109 308.711 12 308.016 11.7812C307.242 11.5312 306.508 11.25 305.812 10.9375C305.125 10.625 304.516 10.2617 303.984 9.84766C303.461 9.42578 303.047 8.9375 302.742 8.38281C302.445 7.82812 302.297 7.18359 302.297 6.44922C302.297 5.73828 302.453 5.09375 302.766 4.51562C303.078 3.92969 303.516 3.42969 304.078 3.01562C304.641 2.59375 305.305 2.26953 306.07 2.04297C306.844 1.81641 307.691 1.70312 308.613 1.70312C309.871 1.70312 310.969 1.92969 311.906 2.38281C312.844 2.83594 313.57 3.45703 314.086 4.24609C314.609 5.03516 314.871 5.9375 314.871 6.95312H311.379C311.379 6.45312 311.273 6.01562 311.062 5.64062C310.859 5.25781 310.547 4.95703 310.125 4.73828C309.711 4.51953 309.188 4.41016 308.555 4.41016C307.945 4.41016 307.438 4.50391 307.031 4.69141C306.625 4.87109 306.32 5.11719 306.117 5.42969C305.914 5.73438 305.812 6.07812 305.812 6.46094C305.812 6.75 305.883 7.01172 306.023 7.24609C306.172 7.48047 306.391 7.69922 306.68 7.90234C306.969 8.10547 307.324 8.29688 307.746 8.47656C308.168 8.65625 308.656 8.83203 309.211 9.00391C310.141 9.28516 310.957 9.60156 311.66 9.95312C312.371 10.3047 312.965 10.6992 313.441 11.1367C313.918 11.5742 314.277 12.0703 314.52 12.625C314.762 13.1797 314.883 13.8086 314.883 14.5117C314.883 15.2539 314.738 15.918 314.449 16.5039C314.16 17.0898 313.742 17.5859 313.195 17.9922C312.648 18.3984 311.996 18.707 311.238 18.918C310.48 19.1289 309.633 19.2344 308.695 19.2344C307.852 19.2344 307.02 19.125 306.199 18.9062C305.379 18.6797 304.633 18.3398 303.961 17.8867C303.297 17.4336 302.766 16.8555 302.367 16.1523C301.969 15.4492 301.77 14.6172 301.77 13.6562H305.297C305.297 14.1875 305.379 14.6367 305.543 15.0039C305.707 15.3711 305.938 15.668 306.234 15.8945C306.539 16.1211 306.898 16.2852 307.312 16.3867C307.734 16.4883 308.195 16.5391 308.695 16.5391C309.305 16.5391 309.805 16.4531 310.195 16.2812C310.594 16.1094 310.887 15.8711 311.074 15.5664C311.27 15.2617 311.367 14.918 311.367 14.5352ZM316.523 12.7891V12.543C316.523 11.6133 316.656 10.7578 316.922 9.97656C317.188 9.1875 317.574 8.50391 318.082 7.92578C318.59 7.34766 319.215 6.89844 319.957 6.57812C320.699 6.25 321.551 6.08594 322.512 6.08594C323.473 6.08594 324.328 6.25 325.078 6.57812C325.828 6.89844 326.457 7.34766 326.965 7.92578C327.48 8.50391 327.871 9.1875 328.137 9.97656C328.402 10.7578 328.535 11.6133 328.535 12.543V12.7891C328.535 13.7109 328.402 14.5664 328.137 15.3555C327.871 16.1367 327.48 16.8203 326.965 17.4062C326.457 17.9844 325.832 18.4336 325.09 18.7539C324.348 19.0742 323.496 19.2344 322.535 19.2344C321.574 19.2344 320.719 19.0742 319.969 18.7539C319.227 18.4336 318.598 17.9844 318.082 17.4062C317.574 16.8203 317.188 16.1367 316.922 15.3555C316.656 14.5664 316.523 13.7109 316.523 12.7891ZM319.898 12.543V12.7891C319.898 13.3203 319.945 13.8164 320.039 14.2773C320.133 14.7383 320.281 15.1445 320.484 15.4961C320.695 15.8398 320.969 16.1094 321.305 16.3047C321.641 16.5 322.051 16.5977 322.535 16.5977C323.004 16.5977 323.406 16.5 323.742 16.3047C324.078 16.1094 324.348 15.8398 324.551 15.4961C324.754 15.1445 324.902 14.7383 324.996 14.2773C325.098 13.8164 325.148 13.3203 325.148 12.7891V12.543C325.148 12.0273 325.098 11.543 324.996 11.0898C324.902 10.6289 324.75 10.2227 324.539 9.87109C324.336 9.51172 324.066 9.23047 323.73 9.02734C323.395 8.82422 322.988 8.72266 322.512 8.72266C322.035 8.72266 321.629 8.82422 321.293 9.02734C320.965 9.23047 320.695 9.51172 320.484 9.87109C320.281 10.2227 320.133 10.6289 320.039 11.0898C319.945 11.543 319.898 12.0273 319.898 12.543ZM335.848 16.5977C336.262 16.5977 336.629 16.5195 336.949 16.3633C337.27 16.1992 337.52 15.9727 337.699 15.6836C337.887 15.3867 337.984 15.0391 337.992 14.6406H341.168C341.16 15.5312 340.922 16.3242 340.453 17.0195C339.984 17.707 339.355 18.25 338.566 18.6484C337.777 19.0391 336.895 19.2344 335.918 19.2344C334.934 19.2344 334.074 19.0703 333.34 18.7422C332.613 18.4141 332.008 17.9609 331.523 17.3828C331.039 16.7969 330.676 16.1172 330.434 15.3438C330.191 14.5625 330.07 13.7266 330.07 12.8359V12.4961C330.07 11.5977 330.191 10.7617 330.434 9.98828C330.676 9.20703 331.039 8.52734 331.523 7.94922C332.008 7.36328 332.613 6.90625 333.34 6.57812C334.066 6.25 334.918 6.08594 335.895 6.08594C336.934 6.08594 337.844 6.28516 338.625 6.68359C339.414 7.08203 340.031 7.65234 340.477 8.39453C340.93 9.12891 341.16 10 341.168 11.0078H337.992C337.984 10.5859 337.895 10.2031 337.723 9.85938C337.559 9.51562 337.316 9.24219 336.996 9.03906C336.684 8.82812 336.297 8.72266 335.836 8.72266C335.344 8.72266 334.941 8.82812 334.629 9.03906C334.316 9.24219 334.074 9.52344 333.902 9.88281C333.73 10.2344 333.609 10.6367 333.539 11.0898C333.477 11.5352 333.445 12.0039 333.445 12.4961V12.8359C333.445 13.3281 333.477 13.8008 333.539 14.2539C333.602 14.707 333.719 15.1094 333.891 15.4609C334.07 15.8125 334.316 16.0898 334.629 16.293C334.941 16.4961 335.348 16.5977 335.848 16.5977ZM346.688 6.32031V19H343.301V6.32031H346.688ZM343.09 3.01562C343.09 2.52344 343.262 2.11719 343.605 1.79688C343.949 1.47656 344.41 1.31641 344.988 1.31641C345.559 1.31641 346.016 1.47656 346.359 1.79688C346.711 2.11719 346.887 2.52344 346.887 3.01562C346.887 3.50781 346.711 3.91406 346.359 4.23438C346.016 4.55469 345.559 4.71484 344.988 4.71484C344.41 4.71484 343.949 4.55469 343.605 4.23438C343.262 3.91406 343.09 3.50781 343.09 3.01562ZM355.312 19.2344C354.328 19.2344 353.445 19.0781 352.664 18.7656C351.883 18.4453 351.219 18.0039 350.672 17.4414C350.133 16.8789 349.719 16.2266 349.43 15.4844C349.141 14.7344 348.996 13.9375 348.996 13.0938V12.625C348.996 11.6641 349.133 10.7852 349.406 9.98828C349.68 9.19141 350.07 8.5 350.578 7.91406C351.094 7.32812 351.719 6.87891 352.453 6.56641C353.188 6.24609 354.016 6.08594 354.938 6.08594C355.836 6.08594 356.633 6.23438 357.328 6.53125C358.023 6.82812 358.605 7.25 359.074 7.79688C359.551 8.34375 359.91 9 360.152 9.76562C360.395 10.5234 360.516 11.3672 360.516 12.2969V13.7031H350.438V11.4531H357.199V11.1953C357.199 10.7266 357.113 10.3086 356.941 9.94141C356.777 9.56641 356.527 9.26953 356.191 9.05078C355.855 8.83203 355.426 8.72266 354.902 8.72266C354.457 8.72266 354.074 8.82031 353.754 9.01562C353.434 9.21094 353.172 9.48438 352.969 9.83594C352.773 10.1875 352.625 10.6016 352.523 11.0781C352.43 11.5469 352.383 12.0625 352.383 12.625V13.0938C352.383 13.6016 352.453 14.0703 352.594 14.5C352.742 14.9297 352.949 15.3008 353.215 15.6133C353.488 15.9258 353.816 16.168 354.199 16.3398C354.59 16.5117 355.031 16.5977 355.523 16.5977C356.133 16.5977 356.699 16.4805 357.223 16.2461C357.754 16.0039 358.211 15.6406 358.594 15.1562L360.234 16.9375C359.969 17.3203 359.605 17.6875 359.145 18.0391C358.691 18.3906 358.145 18.6797 357.504 18.9062C356.863 19.125 356.133 19.2344 355.312 19.2344ZM368.648 6.32031V8.71094H361.266V6.32031H368.648ZM363.094 3.19141H366.469V15.1797C366.469 15.5469 366.516 15.8281 366.609 16.0234C366.711 16.2188 366.859 16.3555 367.055 16.4336C367.25 16.5039 367.496 16.5391 367.793 16.5391C368.004 16.5391 368.191 16.5312 368.355 16.5156C368.527 16.4922 368.672 16.4688 368.789 16.4453L368.801 18.9297C368.512 19.0234 368.199 19.0977 367.863 19.1523C367.527 19.207 367.156 19.2344 366.75 19.2344C366.008 19.2344 365.359 19.1133 364.805 18.8711C364.258 18.6211 363.836 18.2227 363.539 17.6758C363.242 17.1289 363.094 16.4102 363.094 15.5195V3.19141ZM374.332 17.5703L377.695 6.32031H381.316L376.219 20.9102C376.109 21.2305 375.961 21.5742 375.773 21.9414C375.594 22.3086 375.348 22.6562 375.035 22.9844C374.73 23.3203 374.344 23.5938 373.875 23.8047C373.414 24.0156 372.848 24.1211 372.176 24.1211C371.855 24.1211 371.594 24.1016 371.391 24.0625C371.188 24.0234 370.945 23.9688 370.664 23.8984V21.4258C370.75 21.4258 370.84 21.4258 370.934 21.4258C371.027 21.4336 371.117 21.4375 371.203 21.4375C371.648 21.4375 372.012 21.3867 372.293 21.2852C372.574 21.1836 372.801 21.0273 372.973 20.8164C373.145 20.6133 373.281 20.3477 373.383 20.0195L374.332 17.5703ZM372.926 6.32031L375.68 15.5078L376.16 19.082L373.863 19.3281L369.305 6.32031H372.926Z" fill="white"/>
</svg>
